<svg xmlns="http://www.w3.org/2000/svg" width="24" height="24" viewBox="0 0 24 24" fill="none">
  <path d="M12 0.269531C5.376 0.269531 0 5.54478 0 12.0447C0 18.5445 5.376 23.8198 12 23.8198C18.624 23.8198 24 18.5445 24 12.0447C24 5.54478 18.624 0.269531 12 0.269531ZM12 3.80207C13.992 3.80207 15.6 5.37993 15.6 7.3346C15.6 9.28927 13.992 10.8671 12 10.8671C10.008 10.8671 8.4 9.28927 8.4 7.3346C8.4 5.37993 10.008 3.80207 12 3.80207ZM12 20.5227C9 20.5227 6.348 19.0155 4.8 16.7311C4.836 14.3879 9.6 13.1044 12 13.1044C14.388 13.1044 19.164 14.3879 19.2 16.7311C17.652 19.0155 15 20.5227 12 20.5227Z" fill="black" fill-opacity="0.5"/>
</svg>