<svg xmlns="http://www.w3.org/2000/svg" width="24" height="25" viewBox="0 0 24 25" fill="none">
  <path d="M14.0255 5.26552C14.0255 5.80117 14.0255 6.32359 14.0255 6.84602C14.0255 7.73215 14.0322 8.61167 14.0189 9.4978C14.0189 9.63006 13.9722 9.77554 13.8989 9.88135C13.4589 10.5162 13.5122 11.3296 14.0389 11.8851C14.5655 12.4406 15.4055 12.5464 16.0522 12.1364C16.7055 11.7264 16.9722 10.913 16.6855 10.2054C16.3989 9.4978 15.6655 9.10764 14.9055 9.24651C14.8789 9.25312 14.8589 9.24651 14.7989 9.25312C14.7989 9.16054 14.7989 9.07457 14.7989 8.9886C14.7989 6.34343 14.7989 3.69826 14.7989 1.05309C14.7989 0.596795 14.9122 0.484375 15.3722 0.484375C16.4722 0.484375 17.5722 0.484375 18.6722 0.484375C19.0656 0.484375 19.1989 0.616634 19.1989 1.0068C19.1989 1.72761 19.1989 2.4418 19.1989 3.16261C19.1989 3.51971 19.0589 3.65858 18.6989 3.65858C17.7656 3.65858 16.8322 3.65858 15.8989 3.65858C15.8055 3.65858 15.7189 3.65858 15.6122 3.65858C15.6122 4.19423 15.6122 4.70343 15.6122 5.24569C15.8589 5.24569 16.0989 5.24569 16.3389 5.24569C17.1389 5.24569 17.9389 5.24569 18.7389 5.24569C21.2522 5.2523 23.1922 7.17005 23.1989 9.65651C23.2056 12.2422 23.1989 14.8278 23.1989 17.4135C23.1989 17.8036 23.0656 17.9359 22.6789 17.9359C18.6456 17.9359 14.6122 17.9359 10.5789 17.9359C10.5055 17.9359 10.4322 17.9359 10.3989 17.9359C10.3989 17.5127 10.3989 17.1093 10.3989 16.7059C10.3989 14.398 10.3922 12.0967 10.3989 9.78877C10.4055 7.90408 9.63888 6.42279 8.09221 5.33165C8.07221 5.31843 8.05887 5.29859 8.01221 5.25891C10.0255 5.26552 12.0055 5.26552 14.0255 5.26552Z" fill="black" fill-opacity="0.5"/>
  <path d="M0.798828 13.3987C0.798828 12.1423 0.798828 10.8858 0.798828 9.62937C0.805495 7.32807 2.51216 5.46984 4.82549 5.25161C7.05883 5.04 9.11216 6.60065 9.53216 8.84243C9.57883 9.10695 9.59883 9.38469 9.59883 9.65582C9.60549 12.2349 9.59883 14.8139 9.59883 17.393C9.59883 17.8096 9.47216 17.9352 9.04549 17.9352C6.47883 17.9352 3.91216 17.9352 1.34549 17.9352C0.918828 17.9352 0.798828 17.8096 0.798828 17.3863C0.798828 16.0638 0.798828 14.7279 0.798828 13.3987ZM5.19883 9.60953C4.42549 9.60953 3.65216 9.60953 2.87883 9.60953C2.55216 9.60953 2.40549 9.75502 2.40549 10.0724C2.39883 10.5486 2.40549 11.0313 2.40549 11.5074C2.40549 11.8447 2.55216 11.9836 2.89883 11.9836C4.43883 11.9836 5.97883 11.9836 7.51883 11.9836C7.86549 11.9836 8.00549 11.8381 8.00549 11.5008C8.00549 11.0379 8.00549 10.575 8.00549 10.1121C8.00549 9.72857 7.87216 9.60292 7.47883 9.60292C6.71883 9.60292 5.95883 9.60953 5.19883 9.60953Z" fill="black" fill-opacity="0.5"/>
  <path d="M10.8057 18.7423C11.879 18.7423 12.9257 18.7423 13.9924 18.7423C13.999 18.8283 14.0057 18.9076 14.0057 18.987C14.0057 20.5741 14.0057 22.1612 14.0057 23.7417C14.0057 24.1649 13.879 24.2906 13.459 24.2906C12.7257 24.2906 11.9924 24.2906 11.259 24.2906C10.9724 24.2906 10.8057 24.1451 10.8057 23.8739C10.799 22.1744 10.8057 20.4683 10.8057 18.7423Z" fill="black" fill-opacity="0.5"/>
  <path d="M14.4053 10.8005C14.4053 10.3574 14.7719 10.0003 15.2186 10.0069C15.6519 10.0135 16.0053 10.3706 16.0053 10.8005C16.0053 11.2435 15.6386 11.6006 15.1919 11.594C14.7519 11.5808 14.4053 11.2303 14.4053 10.8005Z" fill="black" fill-opacity="0.5"/>
  <path d="M7.19225 10.417C7.19225 10.6815 7.19225 10.9262 7.19225 11.1775C5.86558 11.1775 4.55892 11.1775 3.22559 11.1775C3.22559 10.9328 3.22559 10.6815 3.22559 10.417C4.53225 10.417 5.85225 10.417 7.19225 10.417Z" fill="black" fill-opacity="0.5"/>
</svg>