<svg xmlns="http://www.w3.org/2000/svg" width="126" height="126" viewBox="0 0 126 126" fill="none">
  <path d="M123.839 48.4254L122.086 56.9691L120.942 55.8619L119.004 57.2459L117.528 55.4006L114.225 57.8179L111.383 53.0755L108.227 54.9392L106.973 53.2047L102.968 55.4559L101.75 52.8725L104.574 39.2543L119.65 42.3728L123.839 48.4254Z" fill="#85D8D5"/>
  <path d="M119.65 42.3729L123.857 48.4254L118.616 47.3367L119.65 42.3729Z" fill="#DCDCDC"/>
  <path d="M121.698 58.6851L119.115 71.2331L98.8164 67.0443L101.381 54.5886L102.581 57.172L106.604 54.9207L107.858 56.6368L111.014 54.7915L113.837 59.5339L117.159 57.1166L118.635 58.9434L120.572 57.5779L121.698 58.6851Z" fill="#85D8D5"/>
  <path d="M92.6347 57.2086L71.949 58.5003L70.3066 31.9281L85.6595 30.9686L91.306 35.711L92.6347 57.2086Z" fill="#85D8D5"/>
  <path d="M85.6597 30.9686L91.3063 35.711L85.9734 36.0431L85.6597 30.9686Z" fill="#DCDCDC"/>
  <path d="M79.9389 48.8493L79.865 48.2588C79.6621 47.0224 79.9942 45.62 81.0829 44.1807C82.0609 42.889 82.5776 41.9663 82.5223 40.9145C82.4485 39.7335 81.6734 38.9954 80.2156 39.0508C79.3853 39.1061 78.4811 39.4198 77.909 39.8996L77.2632 38.4787C78.0013 37.8882 79.293 37.4454 80.5294 37.3716C83.1866 37.2239 84.4783 38.7924 84.589 40.5639C84.6813 42.1324 83.8693 43.3134 82.8175 44.6974C81.858 45.9522 81.5443 47.004 81.6919 48.1665L81.7472 48.7754L79.9389 48.8493ZM79.6067 52.1154C79.5513 51.2666 80.1049 50.6207 80.9169 50.5838C81.7288 50.5469 82.3193 51.1005 82.3562 51.9678C82.3931 52.7797 81.9133 53.4256 81.046 53.4809C80.2341 53.5178 79.6436 52.9274 79.6067 52.1154Z" fill="#DCDCDC"/>
  <path d="M28.1782 44.3285L26.093 43.3874L25.7977 44.0332C25.7055 44.2178 25.5209 44.3469 25.318 44.3469C25.2072 44.3469 25.0965 44.3654 24.9858 44.3838C24.7828 44.4208 24.5798 44.3285 24.4691 44.1624L24.0632 43.5904L22.1994 44.919L22.6054 45.491C22.7161 45.6571 22.7346 45.8785 22.6423 46.0631C22.5869 46.1738 22.55 46.266 22.4947 46.3768C22.4209 46.5613 22.2548 46.7089 22.0518 46.7274L21.3506 46.8012L21.572 49.0709L22.2732 48.9971C22.4762 48.9786 22.6792 49.0709 22.7899 49.2554C22.8268 49.3108 22.8453 49.3477 22.8822 49.403C22.9191 49.4399 22.956 49.4953 22.9929 49.5322C23.1221 49.6983 23.159 49.9013 23.0667 50.0858L22.7715 50.7316L24.8566 51.6727L25.1519 51.0269C25.2441 50.8424 25.4287 50.7132 25.6317 50.7132C25.7424 50.7132 25.8531 50.6947 25.9638 50.6763C26.1668 50.6394 26.3698 50.7316 26.4805 50.8977L26.8865 51.4698L28.7502 50.1412L28.3442 49.5691C28.2335 49.403 28.2151 49.1816 28.3073 48.9971C28.3627 48.9048 28.3996 48.7941 28.455 48.6834C28.5288 48.4988 28.6948 48.3512 28.8978 48.3328L29.599 48.259L29.3776 45.9893L28.6764 46.0631C28.4734 46.0815 28.2704 45.9893 28.1597 45.8047C28.1228 45.7494 28.1043 45.7125 28.0674 45.6571C28.0305 45.6202 27.9936 45.5648 27.9567 45.5279C27.8276 45.3619 27.7906 45.1589 27.8829 44.9559L28.1782 44.3285ZM26.9972 46.4321C27.6061 47.281 27.4031 48.4435 26.5728 49.0524C25.7239 49.6614 24.5614 49.4584 23.9524 48.628C23.3435 47.7792 23.5465 46.6166 24.3769 46.0077C25.2257 45.3988 26.3882 45.6017 26.9972 46.4321Z" fill="#85D8D5"/>
  <path d="M122.27 74.5175L120.886 75.3109L121.126 75.7353C121.199 75.8645 121.199 76.0121 121.107 76.1413C121.07 76.2151 121.015 76.2705 120.996 76.3443C120.923 76.4735 120.793 76.5473 120.664 76.5473H120.166V78.1527H120.664C120.812 78.1527 120.941 78.2265 120.996 78.3557C121.033 78.4295 121.07 78.5033 121.107 78.5586C121.181 78.6878 121.199 78.8354 121.126 78.9646L120.886 79.389L122.27 80.1825L122.51 79.7581C122.583 79.6289 122.713 79.5551 122.86 79.5736C122.897 79.5736 122.934 79.5736 122.971 79.5736C123.008 79.5736 123.045 79.5736 123.082 79.5736C123.229 79.5736 123.358 79.6289 123.432 79.7581L123.672 80.1825L125.056 79.389L124.816 78.9646C124.742 78.8354 124.742 78.6878 124.835 78.5586C124.872 78.4848 124.927 78.4295 124.945 78.3557C125.019 78.2265 125.148 78.1527 125.277 78.1527H125.776V76.5473H125.277C125.13 76.5473 125.001 76.4735 124.945 76.3443C124.908 76.2705 124.872 76.1967 124.835 76.1413C124.761 76.0121 124.742 75.8645 124.816 75.7353L125.056 75.3109L123.672 74.5175L123.432 74.9419C123.358 75.071 123.229 75.1264 123.082 75.1264C123.045 75.1264 123.008 75.1264 122.971 75.1264C122.934 75.1264 122.897 75.1264 122.86 75.1264C122.713 75.1264 122.583 75.071 122.51 74.9419L122.27 74.5175ZM122.989 76.049C123.709 76.049 124.299 76.6395 124.299 77.3592C124.299 78.0789 123.709 78.6694 122.989 78.6694C122.27 78.6694 121.679 78.0789 121.679 77.3592C121.679 76.6395 122.251 76.049 122.989 76.049Z" fill="#85D8D5"/>
  <path d="M32.3854 37.5194L31.1122 38.4974L31.4074 38.8849C31.4997 38.9956 31.4997 39.1617 31.4443 39.2909C31.4074 39.3647 31.3705 39.4385 31.3521 39.5123C31.2967 39.6415 31.186 39.7522 31.0384 39.7707L30.5586 39.826L30.7616 41.413L31.2414 41.3576C31.389 41.3392 31.5181 41.413 31.6104 41.5237C31.6473 41.5975 31.7027 41.6529 31.758 41.7082C31.8503 41.8189 31.8872 41.9665 31.8318 42.0957L31.6473 42.557L33.1235 43.166L33.3081 42.7047C33.3634 42.5755 33.4926 42.4832 33.6402 42.4832C33.6771 42.4832 33.714 42.4832 33.7509 42.4648C33.7879 42.4648 33.8248 42.4463 33.8617 42.4463C34.0093 42.4279 34.1385 42.4648 34.2307 42.5939L34.526 42.9815L35.7992 42.0035L35.504 41.6159C35.4117 41.5052 35.4117 41.3391 35.4671 41.21C35.504 41.1362 35.5409 41.0624 35.5593 40.9885C35.6147 40.8594 35.7254 40.7487 35.873 40.7302L36.3528 40.6748L36.1498 39.0879L35.6701 39.1433C35.5224 39.1617 35.3933 39.0879 35.301 38.9772C35.2641 38.9034 35.2087 38.848 35.1534 38.7926C35.0611 38.6819 35.0242 38.5343 35.0796 38.4051L35.2641 37.9438L33.7879 37.3349L33.6033 37.7962C33.548 37.9254 33.4188 38.0176 33.2712 38.0176C33.2343 38.0176 33.1974 38.0176 33.1605 38.0361C33.1235 38.0361 33.0866 38.0545 33.0497 38.0545C32.9021 38.073 32.7545 38.0361 32.6807 37.9069L32.3854 37.5194ZM33.2896 38.9403C34.0093 38.848 34.6736 39.3462 34.7659 40.0659C34.8581 40.7856 34.3599 41.4499 33.6402 41.5421C32.9206 41.6344 32.2563 41.1362 32.164 40.4165C32.0717 39.6968 32.57 39.0325 33.2896 38.9403Z" fill="#85D8D5"/>
  <path d="M22.8826 79.1499C22.9564 77.36 22.9195 75.57 22.8088 73.7985C22.5689 70.1264 21.96 66.4727 21.1296 62.8744C20.6683 60.8631 20.0778 58.8702 19.4873 56.8772C19.4688 56.8219 19.3766 56.8403 19.395 56.8957C21.2587 63.8893 22.7719 71.1044 22.6796 78.3749C22.6427 80.4047 22.4213 82.4161 22.2183 84.4274C22.2183 84.4828 22.3106 84.5012 22.3106 84.4459C22.6981 82.7298 22.8088 80.9214 22.8826 79.1499Z" fill="#85D8D5"/>
  <path d="M19.3949 56.8957C19.3949 56.8957 16.5901 64.037 17.2175 65.7162C17.8449 67.3954 19.155 67.746 19.155 67.746C19.155 67.746 17.4389 70.2003 18.6383 72.5069C19.8378 74.8135 22.5135 74.7028 22.698 77.3231C22.6795 77.3231 22.8272 66.399 19.3949 56.8957Z" fill="#85D8D5"/>
  <path d="M22.3658 72.8205C22.3658 72.802 22.3658 72.802 22.3658 72.7836C21.9783 67.9305 21.111 63.0958 19.6348 58.4272C19.6348 58.4088 19.6163 58.4088 19.6163 58.4272C20.1699 60.5124 20.6682 62.616 21.0926 64.7197C20.7235 64.3506 20.2437 64.1292 19.7455 63.9631C19.7271 63.9631 19.7271 63.9816 19.7455 63.9816C20.2622 64.203 20.7604 64.4613 21.1295 64.9042C21.2033 65.3102 21.2956 65.7346 21.3694 66.1405C20.742 65.4393 19.8747 65.0887 18.9889 64.7566C18.9705 64.7566 18.9705 64.775 18.9889 64.775C19.8931 65.1441 20.7973 65.6239 21.4247 66.3989C21.6462 67.5799 21.8307 68.7793 21.9968 69.9603C21.5354 69.4805 20.9634 69.1484 20.3175 69.0007C20.2991 69.0007 20.2806 69.0192 20.2991 69.0377C20.9634 69.2222 21.5354 69.6097 21.9968 70.1264C21.9968 70.1264 21.9968 70.1264 22.0152 70.1264C22.0706 70.5508 22.1259 70.9752 22.1813 71.3812C21.8307 71.0859 21.4432 70.846 21.0003 70.68C20.9819 70.68 20.9819 70.6984 21.0003 70.6984C21.4432 70.8829 21.8307 71.1597 22.1813 71.4734H22.1997C22.2551 71.8794 22.292 72.2669 22.3289 72.6729C21.6831 71.8979 20.8896 71.3258 19.9485 70.9752C19.93 70.9752 19.9116 70.9937 19.93 71.0121C20.8527 71.4181 21.6646 72.0455 22.2736 72.8205C22.292 72.8389 22.3105 72.8389 22.3289 72.8389C22.3843 73.4479 22.4396 74.0753 22.495 74.6842C22.495 74.6842 22.5134 74.7027 22.5134 74.6842C22.4581 74.0753 22.4212 73.4479 22.3658 72.8205Z" fill="white"/>
  <path d="M20.1148 63.2619C19.6351 62.9297 19.0077 62.7821 18.4172 62.7267C18.3987 62.7267 18.3987 62.7452 18.4172 62.7452C19.0261 62.8375 19.5243 63.0589 20.0964 63.2988C20.1148 63.3172 20.1333 63.2803 20.1148 63.2619Z" fill="white"/>
  <path d="M20.4468 70.8276C20.0592 70.5877 19.6164 70.4585 19.1735 70.3847C19.1551 70.3847 19.1551 70.4032 19.1735 70.4032C19.6164 70.477 20.0223 70.643 20.4283 70.846C20.4468 70.8645 20.4652 70.8276 20.4468 70.8276Z" fill="white"/>
  <path d="M30.2825 65.8448C29.1015 66.6751 27.9759 67.6162 27.0348 68.6865C26.0199 69.8306 25.2633 71.1223 24.7466 72.5616C23.6764 75.5141 23.1043 78.688 23.049 81.825C23.0121 83.578 23.1781 85.3126 23.5472 87.0287C23.5657 87.0841 23.6579 87.0656 23.6395 87.0102C23.1781 84.0024 23.1966 80.9208 23.6948 77.913C24.1746 74.9605 24.9312 71.7497 26.8134 69.3508C27.8283 68.0407 29.1015 67.0073 30.3748 65.9555C30.4301 65.8817 30.3563 65.7894 30.2825 65.8448Z" fill="#85D8D5"/>
  <path d="M23.4551 79.6844C23.4551 79.6844 24.4146 78.0606 25.8355 76.6582C27.2379 75.2557 28.4374 74.2593 28.6034 73.3182C28.788 72.3955 27.201 71.6943 27.201 71.6943C27.201 71.6943 29.157 72.0449 29.6737 71.233C30.2088 70.4211 30.4672 65.6787 30.4672 65.6787C30.4672 65.6787 26.9242 68.2067 25.2819 71.7497C23.6212 75.3111 23.4551 79.6844 23.4551 79.6844Z" fill="#85D8D5"/>
  <path d="M29.2307 66.8966C27.736 68.3544 26.2414 69.9229 25.3556 71.842C25.0604 72.5063 24.802 73.1891 24.5806 73.8903C24.5437 74.0379 24.4883 74.1671 24.4514 74.3147V74.3331C24.0086 75.7725 23.7133 77.2487 23.4365 78.7065C23.4365 78.7249 23.455 78.7249 23.455 78.7065C23.6026 77.9684 23.7687 77.2302 23.9717 76.4737H23.9901C24.2854 76.3445 24.5991 76.2707 24.9128 76.2338C24.9312 76.2338 24.9312 76.1969 24.9128 76.1969C24.5991 76.2153 24.2854 76.2707 23.9901 76.363C24.1562 75.6987 24.3407 75.0159 24.5621 74.37C25.2449 74.204 25.9646 74.1117 26.6658 74.0932V74.0748C25.9646 74.0379 25.2818 74.1117 24.5991 74.2593C24.636 74.1486 24.6729 74.0379 24.7098 73.9272C25.1711 73.8165 25.6324 73.7426 26.1122 73.6873V73.6688C25.6509 73.6873 25.1895 73.7242 24.7467 73.8349C24.9312 73.2629 25.1526 72.7093 25.3741 72.1557C25.5586 71.6944 25.7985 71.2699 26.0384 70.864C26.4259 70.7717 26.7765 70.6979 27.164 70.661C27.1825 70.661 27.1825 70.6426 27.164 70.6426C26.8134 70.6241 26.4443 70.6425 26.1122 70.7533C26.2967 70.458 26.4997 70.1628 26.7027 69.8675C27.4962 69.683 28.3081 69.5354 29.12 69.683C29.1385 69.683 29.1385 69.6645 29.12 69.6645C28.345 69.4616 27.57 69.5723 26.8134 69.7384C26.9057 69.6276 26.9795 69.5169 27.0717 69.4062C27.5515 69.2586 28.0497 69.1848 28.548 69.1663C28.5664 69.1663 28.5664 69.1479 28.548 69.1479C28.0867 69.111 27.6069 69.1479 27.164 69.277C27.8283 68.4651 28.548 67.6901 29.2676 66.9335C29.3045 66.8782 29.2676 66.8597 29.2307 66.8966Z" fill="white"/>
  <path d="M29.1937 70.1258C28.9538 70.1073 28.7324 70.0704 28.4925 70.1073C28.4556 70.1073 28.474 70.1627 28.4925 70.1627C28.7324 70.1627 28.9538 70.1442 29.1937 70.1627C29.2122 70.1627 29.2122 70.1258 29.1937 70.1258Z" fill="white"/>
  <path d="M26.6473 74.7206C26.2783 74.7206 25.9092 74.8129 25.5586 74.942V74.9605C25.9277 74.8682 26.2783 74.8313 26.6473 74.776C26.6842 74.776 26.6842 74.7206 26.6473 74.7206Z" fill="white"/>
  <path d="M25.8907 73.1337C25.7431 73.1337 25.577 73.1522 25.4294 73.1706C25.4109 73.1706 25.4109 73.1891 25.4294 73.1891C25.577 73.1891 25.7431 73.1891 25.8907 73.1706C25.9091 73.1706 25.9091 73.1337 25.8907 73.1337Z" fill="white"/>
  <path d="M13.0661 70.8645C14.2102 71.252 15.3358 71.7687 16.3508 72.4145C17.4395 73.0973 18.3437 73.983 19.1002 75.0164C20.6503 77.1569 21.8497 79.5927 22.6247 82.1208C23.0492 83.5416 23.3259 84.981 23.4182 86.4572C23.4182 86.5125 23.3444 86.5125 23.3444 86.4572C23.0122 83.9107 22.2926 81.4195 21.2039 79.0945C20.1336 76.8248 18.7681 74.389 16.7014 72.8759C15.5757 72.0455 14.3025 71.5103 13.0292 70.9568C12.9554 70.9383 13.0108 70.846 13.0661 70.8645Z" fill="#85D8D5"/>
  <path d="M21.7941 80.4968C21.7941 80.4968 20.6316 79.4081 19.1738 78.5962C17.716 77.7842 16.5166 77.2491 16.1475 76.5294C15.7785 75.8098 16.9225 74.8871 16.9225 74.8871C16.9225 74.8871 15.4278 75.6252 14.8004 75.0901C14.1731 74.555 12.8813 70.7721 12.8813 70.7721C12.8813 70.7721 16.332 72.0085 18.491 74.4812C20.65 76.9908 21.7941 80.4968 21.7941 80.4968Z" fill="#85D8D5"/>
  <path d="M21.6093 79.7217C19.8748 76.474 17.5866 73.54 14.4312 71.6209C15.2615 72.156 16.0366 72.765 16.7378 73.4293C16.0919 73.4108 15.4461 73.5215 14.874 73.8168C14.8556 73.8168 14.874 73.8352 14.8925 73.8352C15.5199 73.6138 16.1288 73.4846 16.7931 73.5215C16.8116 73.5215 16.8116 73.5215 16.8116 73.5215C16.9223 73.6322 17.033 73.743 17.1437 73.8537C16.8116 73.8721 16.4794 73.909 16.1473 73.9828V74.0013C16.4979 73.9275 16.8485 73.909 17.1991 73.909C17.7711 74.4811 18.3247 75.1085 18.8229 75.7543C18.6015 75.7174 18.3432 75.7359 18.1217 75.8097C18.1033 75.8097 18.1033 75.8466 18.1217 75.8281C18.3801 75.7912 18.62 75.8097 18.8598 75.8097C18.9521 75.9389 19.0444 76.0496 19.1366 76.1787C18.4354 76.1418 17.7342 76.1972 17.033 76.3817C17.0146 76.3817 17.033 76.4002 17.033 76.4002C17.7527 76.2526 18.4539 76.2157 19.192 76.2526C19.2843 76.3633 19.3581 76.4924 19.4503 76.6032C19.0259 76.5847 18.62 76.6401 18.1955 76.7508C18.1771 76.7508 18.1771 76.7877 18.1955 76.7692C18.62 76.677 19.0444 76.6401 19.4872 76.677C19.8563 77.1937 20.2069 77.7103 20.5575 78.2455C20.373 78.2086 20.1885 78.227 20.0039 78.2824C19.9855 78.2824 20.0039 78.3008 20.0039 78.3008C20.2069 78.2824 20.3914 78.3008 20.5944 78.3377C20.9081 78.8175 21.2034 79.2973 21.4802 79.7771C21.5724 79.7955 21.6462 79.7586 21.6093 79.7217Z" fill="white"/>
  <path d="M18.934 77.0276C18.6018 76.9907 18.2512 77.046 17.9375 77.1568V77.1752C18.2697 77.1199 18.6018 77.083 18.934 77.0645C18.9524 77.0645 18.9524 77.0276 18.934 77.0276Z" fill="white"/>
  <path d="M15.9258 73.0788C15.7782 73.0604 15.6121 73.0788 15.4645 73.0973C15.4461 73.0973 15.4461 73.1342 15.4645 73.1157C15.6121 73.0973 15.7598 73.0973 15.9258 73.0973C15.9443 73.1157 15.9443 73.0788 15.9258 73.0788Z" fill="white"/>
  <path d="M26.2412 91.2175H18.4541L19.5613 83.0798L19.8565 80.9946H24.8573L25.1341 83.0798L26.2412 91.2175Z" fill="#55C9C5"/>
  <path d="M25.1338 83.0798H19.561L19.8563 80.9946H24.857L25.1338 83.0798Z" fill="#0A8E8A"/>
  <path d="M25.5768 80.2562H19.1367V82.0276H25.5768V80.2562Z" fill="#55C9C5"/>
  <path d="M13.5088 91.2178L27.533 91.1624L41.5572 91.1439L69.6056 91.1255L97.654 91.1439L111.678 91.1624L125.702 91.2178L111.678 91.2547L97.654 91.2731L69.6056 91.31L41.5572 91.2731L27.533 91.2547L13.5088 91.2178Z" fill="#1A2E35"/>
  <path d="M69.9743 104.964C99.1926 104.964 122.879 102.37 122.879 99.1696C122.879 95.9696 99.1926 93.3754 69.9743 93.3754C40.756 93.3754 17.0698 95.9696 17.0698 99.1696C17.0698 102.37 40.756 104.964 69.9743 104.964Z" fill="#85D8D5"/>
  <path d="M57.6659 98.2112C57.2414 98.3588 44.9149 98.3957 44.4351 98.1004C44.2506 97.9897 44.1399 96.1998 44.0661 94.0224C44.0476 93.561 44.0292 93.0628 44.0292 92.583L43.0327 86.0138L51.2812 85.9584L52.0562 92.5277L52.0193 93.967C52.0193 93.967 56.7432 96.0706 57.223 96.4397C57.7028 96.8272 58.0903 98.0635 57.6659 98.2112Z" fill="#FF9581"/>
  <path d="M57.666 98.2111C57.2416 98.3587 44.915 98.3956 44.4353 98.1004C44.2138 97.9712 44.1031 95.3509 44.0293 92.5829L52.0563 92.5276L52.0194 93.9669C52.0194 93.9669 56.7433 96.0705 57.2231 96.4396C57.7029 96.8271 58.0904 98.0635 57.666 98.2111Z" fill="white"/>
  <path d="M57.6657 98.211C57.2413 98.3586 44.9148 98.3956 44.435 98.1003C44.2504 97.9896 44.1397 96.1997 44.0659 94.0222L52.0191 93.9669C52.0191 93.9669 56.7431 96.0705 57.2228 96.4395C57.7026 96.8271 58.0901 98.0634 57.6657 98.211Z" fill="#0CB2AC"/>
  <path d="M57.4808 97.7125C55.4141 97.6756 47.0733 97.6941 45.0251 97.8048C45.0066 97.8048 45.0066 97.8232 45.0251 97.8232C47.0733 97.9155 55.4141 97.8232 57.4808 97.7494C57.5177 97.7494 57.5177 97.7125 57.4808 97.7125Z" fill="#1A2E35"/>
  <path d="M56.4292 95.9964C55.931 95.9779 55.4697 96.2178 55.1929 96.5131C54.9345 96.7899 54.7131 97.1958 54.7315 97.6202C54.7315 97.6387 54.75 97.6387 54.75 97.6202C54.8607 96.8083 55.5988 96.1071 56.4108 96.0333C56.4477 96.0333 56.4477 96.0148 56.4292 95.9964Z" fill="#1A2E35"/>
  <path d="M52.8122 94.1696C51.9819 94.1696 51.0223 94.4648 50.5241 95.1291C50.5056 95.1476 50.5425 95.1845 50.561 95.166C51.2991 94.7785 52.0188 94.4833 52.8307 94.2618C52.886 94.2618 52.8676 94.1696 52.8122 94.1696Z" fill="#1A2E35"/>
  <path d="M53.4577 94.428C52.6274 94.428 51.6678 94.7232 51.1696 95.3875C51.1511 95.406 51.188 95.4429 51.2065 95.4244C51.9446 95.0369 52.6643 94.7417 53.4762 94.5202C53.5316 94.5018 53.5131 94.428 53.4577 94.428Z" fill="#1A2E35"/>
  <path d="M54.0857 94.6678C53.2553 94.6678 52.2957 94.9631 51.7975 95.6274C51.7791 95.6458 51.816 95.6827 51.8344 95.6643C52.5725 95.2768 53.2922 94.9815 54.1041 94.7601C54.1595 94.7601 54.1595 94.6678 54.0857 94.6678Z" fill="#1A2E35"/>
  <path d="M54.7312 94.9077C53.9008 94.9077 52.9412 95.2029 52.443 95.8672C52.4246 95.8857 52.4615 95.9226 52.4799 95.9041C53.218 95.5166 53.9377 95.2214 54.7496 94.9999C54.805 94.9999 54.7865 94.9077 54.7312 94.9077Z" fill="#1A2E35"/>
  <path d="M45.5417 95.8487C44.6191 95.8487 44.6191 97.288 45.5602 97.288C46.4828 97.2696 46.4644 95.8302 45.5417 95.8487Z" fill="#0A8E8A"/>
  <path d="M53.6978 91.9552C53.2734 91.6046 52.7567 91.9552 52.4984 92.3058C52.074 92.8963 51.7972 93.7082 51.7603 94.4279C51.7603 94.4463 51.7787 94.4463 51.7787 94.4463C51.7972 94.5017 51.871 94.5571 51.9263 94.5201C52.5168 94.1142 53.1996 93.7451 53.6425 93.1731C53.9008 92.8409 54.1038 92.2873 53.6978 91.9552ZM52.6829 93.7267C52.4061 93.9296 52.1109 94.1326 51.8341 94.3541C51.9817 93.9481 52.1109 93.5237 52.2954 93.1177C52.3877 92.9332 52.4799 92.7302 52.5906 92.5641C52.7752 92.2873 53.5871 91.6046 53.6609 92.4903C53.7163 92.9886 53.0335 93.4683 52.6829 93.7267Z" fill="#1A2E35"/>
  <path d="M49.6936 94.76C50.4132 94.8707 51.1513 94.6677 51.871 94.557C51.9448 94.5385 51.9633 94.4647 51.9264 94.4093C51.9448 94.4093 51.9448 94.3909 51.9264 94.3724C51.3912 93.8927 50.6346 93.4867 49.915 93.3575C49.4721 93.2837 48.8632 93.3944 48.8078 93.9296C48.7524 94.4278 49.2691 94.6861 49.6936 94.76ZM49.1953 94.2802C48.6417 93.579 49.6935 93.5052 50.0257 93.579C50.2287 93.6343 50.4317 93.7081 50.6346 93.7819C51.0406 93.9296 51.4281 94.151 51.8156 94.354C51.465 94.3909 51.1144 94.4463 50.7638 94.5016C50.3394 94.5385 49.509 94.6677 49.1953 94.2802Z" fill="#1A2E35"/>
  <path d="M30.9092 55.6029C30.9092 55.6029 40.4862 71.8783 40.7446 73.0224C41.1321 74.7754 43.2173 92.1212 43.2173 92.1212L53.1818 91.9366C53.1818 91.9366 51.4657 76.6392 49.8419 71.6015C48.6793 67.9663 40.2279 55.935 40.2279 55.935L30.9092 55.6029Z" fill="#2B454E"/>
  <path d="M52.2776 90.423C50.8383 90.4045 45.7822 90.3492 43.8815 90.5337C43.8631 90.5337 43.8631 90.5521 43.8815 90.5521C44.5458 90.6444 50.8567 90.4968 52.2776 90.4599C52.296 90.4599 52.296 90.423 52.2776 90.423Z" fill="#1A2E35"/>
  <path d="M32.5512 57.0971C33.1786 58.0751 33.8429 59.0531 34.4888 60.0126C35.1346 60.9906 35.762 61.9686 36.4079 62.9466C37.6627 64.9026 38.899 66.8956 40.0985 68.8885C40.6705 69.8296 41.2056 70.7707 41.5931 71.7856C41.9806 72.8005 42.239 73.8523 42.442 74.9041C42.645 75.9744 42.7741 77.0447 42.8848 78.1334C43.014 79.2775 43.1432 80.44 43.2723 81.5841C43.5307 83.9276 43.789 86.2896 44.0658 88.6331C44.1027 88.9283 44.1212 89.2051 44.1581 89.5004C44.1581 89.5373 44.0843 89.5557 44.0843 89.5004C43.789 87.1568 43.5491 84.8133 43.2908 82.4883C43.1616 81.3257 43.0325 80.1632 42.8848 79.0007C42.7557 77.9119 42.645 76.8417 42.4789 75.753C42.3128 74.7011 42.0914 73.6493 41.7777 72.616C41.4455 71.5457 40.9657 70.5492 40.3937 69.5712C39.2312 67.5783 38.0133 65.6223 36.7954 63.6663C35.559 61.6918 34.3227 59.7358 33.031 57.7983C32.8649 57.5584 32.7173 57.3185 32.5512 57.0786C32.4959 57.0971 32.5328 57.0786 32.5512 57.0971Z" fill="#1A2E35"/>
  <path d="M34.0461 99.1702C33.5848 99.1333 21.8672 94.3909 21.5351 93.948C21.5166 93.9296 21.5166 93.9111 21.5166 93.8558C21.5166 93.4498 22.3285 92.0474 23.0113 90.1836C23.0482 90.0729 23.3619 89.5193 23.7679 88.7812C24.9304 86.7514 26.9602 83.2638 26.9602 83.2638L34.6182 86.3085L30.946 91.8075L30.374 93.1361C30.374 93.1361 33.9723 96.8451 34.2676 97.3803C34.5997 97.8969 34.5074 99.1886 34.0461 99.1702Z" fill="#FF9581"/>
  <path d="M34.0461 99.1703C33.5848 99.1334 21.8672 94.391 21.5351 93.9481C21.5166 93.9296 21.5166 93.9112 21.5166 93.8558C21.5166 93.4499 22.3285 92.0474 23.0113 90.1837C23.0482 90.073 23.3619 89.5194 23.7679 88.7813L30.9645 91.7891L30.3924 93.1177C30.3924 93.1177 33.9908 96.8267 34.286 97.3619C34.5997 97.897 34.5074 99.1887 34.0461 99.1703Z" fill="white"/>
  <path d="M34.0461 99.1705C33.5848 99.1521 21.8672 94.3912 21.5351 93.9484C21.4059 93.7823 21.941 92.1769 23.0113 90.2024L30.3925 93.1364C30.3925 93.1364 33.9908 96.8455 34.286 97.3806C34.6182 97.8973 34.5075 99.189 34.0461 99.1705Z" fill="#0CB2AC"/>
  <path d="M34.0648 98.6356C32.1641 97.8236 24.4324 94.7051 22.4948 94.0408C22.4763 94.0408 22.4763 94.0408 22.4948 94.0593C24.3585 94.9081 32.1272 97.9528 34.0648 98.6725C34.1017 98.6909 34.1017 98.654 34.0648 98.6356Z" fill="#1A2E35"/>
  <path d="M33.7327 96.6611C33.2899 96.4581 32.7547 96.495 32.4041 96.6611C32.0535 96.8272 31.7029 97.104 31.5737 97.5099C31.5737 97.5284 31.5922 97.5284 31.5922 97.5099C31.9981 96.8087 32.9577 96.4212 33.7327 96.6611C33.7512 96.698 33.7512 96.6796 33.7327 96.6611Z" fill="#1A2E35"/>
  <path d="M31.0753 93.6164C30.3187 93.3027 29.3038 93.2105 28.5842 93.6533C28.5472 93.6718 28.5842 93.7087 28.6026 93.7087C29.433 93.6349 30.208 93.6349 31.0384 93.7272C31.1122 93.7272 31.1307 93.6349 31.0753 93.6164Z" fill="#1A2E35"/>
  <path d="M31.5738 94.0777C30.8173 93.764 29.8023 93.6718 29.0827 94.1146C29.0458 94.1331 29.0827 94.17 29.1011 94.17C29.9315 94.0962 30.7065 94.0962 31.5369 94.1885C31.6107 94.1885 31.6292 94.0962 31.5738 94.0777Z" fill="#1A2E35"/>
  <path d="M32.0719 94.5574C31.3153 94.2437 30.3004 94.1515 29.5807 94.5944C29.5438 94.6128 29.5807 94.6497 29.5992 94.6497C30.4296 94.5759 31.2046 94.5759 32.035 94.6682C32.1088 94.6497 32.1272 94.5759 32.0719 94.5574Z" fill="#1A2E35"/>
  <path d="M32.5699 95.0188C31.8134 94.7051 30.7984 94.6128 30.0788 95.0557C30.0419 95.0741 30.0788 95.111 30.0972 95.111C30.9276 95.0372 31.7026 95.0372 32.533 95.1295C32.6068 95.1295 32.6253 95.0372 32.5699 95.0188Z" fill="#1A2E35"/>
  <path d="M23.7128 92.4354C22.8455 92.0848 22.3104 93.4319 23.1777 93.7825C24.045 94.1146 24.5801 92.7675 23.7128 92.4354Z" fill="#0A8E8A"/>
  <path d="M32.7174 91.9004C32.459 91.4206 31.8501 91.5498 31.4626 91.7712C30.8536 92.1587 30.2816 92.8046 29.9863 93.4504C29.9863 93.4689 29.9863 93.4689 30.0048 93.4873C30.0048 93.5427 30.0417 93.6165 30.1155 93.5981C30.8167 93.432 31.5733 93.3582 32.2007 92.9891C32.5882 92.7861 32.9757 92.3433 32.7174 91.9004ZM31.1304 93.1552C30.7798 93.2474 30.4477 93.3028 30.1155 93.4135C30.4107 93.0814 30.6875 92.7492 31.0012 92.454C31.1489 92.3063 31.3149 92.1772 31.481 92.048C31.7578 91.8635 32.7543 91.5129 32.4959 92.3802C32.3668 92.8599 31.5364 93.0445 31.1304 93.1552Z" fill="#1A2E35"/>
  <path d="M27.9751 92.9706C28.6025 93.3396 29.3775 93.4319 30.0603 93.5795C30.1341 93.598 30.171 93.5242 30.171 93.4688C30.1894 93.4688 30.1894 93.4504 30.1894 93.4319C29.8757 92.7861 29.3222 92.1402 28.7132 91.7342C28.3442 91.4944 27.7168 91.3652 27.4584 91.845C27.2185 92.3247 27.606 92.7676 27.9751 92.9706ZM27.6799 92.3616C27.4215 91.4944 28.4364 91.845 28.6948 92.0295C28.8608 92.1587 29.0269 92.2878 29.1745 92.4355C29.4882 92.7307 29.765 93.0813 30.0603 93.395C29.7281 93.3027 29.3775 93.2289 29.0454 93.1367C28.6394 93.0259 27.8275 92.8414 27.6799 92.3616Z" fill="#1A2E35"/>
  <path d="M31.5738 91.4941L22.9932 88.0249C22.9932 88.0249 33.622 72.3953 33.7143 71.2143C33.7881 70.181 29.1195 61.2129 28.935 58.5925C28.732 55.7692 30.0975 53.5918 31.5922 52.2263L40.4496 55.9907C40.4496 55.9907 39.5085 57.4854 38.0507 58.3157C38.0507 58.3157 42.5901 68.6863 42.3318 71.8786C42.0366 75.0894 31.5738 91.4941 31.5738 91.4941Z" fill="#2B454E"/>
  <path d="M31.9428 89.8516C30.7064 89.3165 31.057 89.4456 29.8207 88.929C29.2118 88.6706 25.2075 87.0099 24.5985 86.8622C24.5801 86.8622 24.5801 86.8807 24.5801 86.8807C25.1152 87.2128 29.1564 88.7998 29.7653 89.0397C31.0201 89.5379 30.6695 89.3718 31.9243 89.8516C31.9612 89.907 31.9797 89.8701 31.9428 89.8516Z" fill="#1A2E35"/>
  <path d="M39.4716 58.1312C38.5489 58.3341 37.6447 58.6478 36.7774 58.9985C36.7405 59.0169 36.759 59.0538 36.7959 59.0538C37.7001 58.7955 38.6227 58.5371 39.5085 58.2234C39.5823 58.2234 39.5454 58.1312 39.4716 58.1312Z" fill="#1A2E35"/>
  <path d="M38.4196 57.7805C38.3273 57.9282 38.2535 58.0942 38.1981 58.2603C38.1428 58.3895 38.0874 58.5186 38.0874 58.6663C38.0874 58.6847 38.1243 58.7032 38.1428 58.6847C38.2535 58.5925 38.3088 58.4448 38.3642 58.3157C38.438 58.168 38.5118 58.0204 38.5856 57.8728C38.6225 57.7436 38.4749 57.6883 38.4196 57.7805Z" fill="#1A2E35"/>
  <path d="M38.5304 56.9502C38.5857 56.821 38.6411 56.6734 38.6964 56.5442C38.7518 56.3966 38.8256 56.2674 38.881 56.1198C38.881 56.1013 38.9179 56.1198 38.9179 56.1382C38.8625 56.2674 38.8256 56.415 38.7887 56.5627C38.7518 56.7103 38.6964 56.8395 38.6595 56.9871C38.5673 57.2454 38.475 57.5038 38.3458 57.7621C38.4935 57.7621 38.6411 57.7621 38.7702 57.6883C38.9179 57.6145 38.9917 57.4669 39.0655 57.3192C39.1393 57.1716 39.2131 57.0055 39.2869 56.8579C39.3792 56.6918 39.4715 56.5258 39.5268 56.3412C39.5268 56.3228 39.5637 56.3412 39.5637 56.3597C39.4345 56.7287 39.3054 57.0978 39.0839 57.4484C39.0101 57.5776 38.9363 57.7252 38.7887 57.7806C38.6226 57.8359 38.4565 57.8175 38.2905 57.8175C38.272 57.8175 38.2351 57.8175 38.2536 57.7806C38.3274 57.4853 38.4196 57.2085 38.5304 56.9502Z" fill="#1A2E35"/>
  <path d="M38.1613 58.6662C38.475 59.3305 38.7518 59.9948 39.0471 60.6591C39.3423 61.3049 39.6006 61.9692 39.859 62.6335C40.3941 63.9621 40.8554 65.3277 41.2799 66.6932C41.4828 67.3759 41.6674 68.0587 41.8519 68.7414C42.018 69.4242 42.184 70.1254 42.2579 70.8451C42.3317 71.5647 42.2763 72.266 42.0733 72.9487C41.8703 73.6499 41.612 74.2589 41.2983 74.9047C41.1138 75.3107 41.04 75.2553 41.1322 75.0523C41.3906 74.4803 42.0918 72.7457 42.0364 71.2879C42.018 70.5867 41.8703 69.8855 41.7043 69.2028C41.5382 68.5016 41.3537 67.8188 41.1507 67.1176C40.7632 65.7705 40.2834 64.4419 39.8036 63.1133C39.5268 62.3752 39.25 61.6371 38.9732 60.899C38.6964 60.1608 38.4197 59.4781 38.106 58.6662C38.106 58.6662 38.1429 58.6477 38.1613 58.6662Z" fill="#1A2E35"/>
  <path d="M31.6478 56.4704C31.7954 56.415 32.0168 56.5073 32.1644 56.5257C32.3674 56.5626 32.5704 56.5811 32.7734 56.5811C32.9764 56.5811 33.1794 56.5811 33.3823 56.5626C33.5853 56.5442 33.7883 56.5257 33.9544 56.415C34.2496 56.2305 34.4895 55.9168 34.6925 55.64C34.9139 55.3263 35.1354 54.9941 35.2645 54.6251C35.2645 54.6066 35.3014 54.6251 35.3014 54.6435C35.2276 54.8465 35.1907 55.0495 35.0985 55.2525C35.0246 55.437 34.9139 55.6215 34.8217 55.7876C34.6187 56.1198 34.3972 56.4519 34.0651 56.6549C33.7145 56.8579 33.2532 56.8394 32.8472 56.821C32.6258 56.8025 32.3859 56.7841 32.1644 56.7287C31.9984 56.6918 31.7216 56.6733 31.6293 56.5257C31.6109 56.5073 31.6109 56.4704 31.6478 56.4704Z" fill="#1A2E35"/>
  <path d="M25.4475 86.3824C26.8499 84.2419 28.2339 82.1014 29.5994 79.9239C30.9649 77.7465 32.2935 75.569 33.6221 73.3547C33.9358 72.8195 34.3049 72.3029 34.5078 71.7124C34.7293 71.085 34.6001 70.4576 34.3971 69.8486C34.0281 68.7046 33.5668 67.5974 33.087 66.5271C32.5887 65.4384 32.0536 64.3681 31.5369 63.2794C31.0202 62.2091 30.4667 61.1389 30.0792 60.0132C29.7101 58.943 29.5625 57.8358 29.8393 56.7102C30.1345 55.603 30.7435 54.625 31.3893 53.7023C31.5554 53.4625 31.7399 53.2226 31.906 52.9827C31.9244 52.9642 31.9429 52.9827 31.9244 53.0011C31.2048 53.9607 30.522 54.9756 30.0976 56.1197C29.8946 56.6733 29.7655 57.2638 29.747 57.8727C29.7285 58.4816 29.8393 59.0721 30.0238 59.6626C30.3744 60.7883 30.9095 61.8401 31.4262 62.8919C31.9429 63.9622 32.478 65.0324 32.9947 66.1211C33.4929 67.2099 33.9727 68.317 34.3602 69.4611C34.5263 69.9778 34.7293 70.4945 34.7108 71.0481C34.6924 71.6386 34.4156 72.1737 34.1203 72.6904C32.8286 74.8863 31.5 77.0453 30.153 79.1858C28.8059 81.3448 27.4219 83.4853 26.0195 85.6074C25.835 85.8842 25.6689 86.1426 25.4844 86.4193C25.4659 86.4562 25.4106 86.4193 25.4475 86.3824Z" fill="#1A2E35"/>
  <path d="M40.9107 46.0626C41.7042 47.8156 45.7454 50.233 47.6276 50.4913C48.9931 50.6758 53.1081 50.7496 54.529 50.5282C56.1897 50.2699 54.9165 45.8043 53.9385 45.915C51.2444 46.2287 48.9562 46.5793 48.2365 46.5793C47.3508 46.5793 42.6084 45.0477 42.0364 44.8447C40.6524 44.3096 40.4679 45.0662 40.9107 46.0626Z" fill="#FF9581"/>
  <path d="M40.9295 46.5231C41.9444 48.0178 45.3028 50.472 45.3028 50.472L45.7641 49.4387L47.3142 46.0249C47.3142 46.0249 44.2325 45.0469 42.2027 44.6224C41.9259 44.5671 41.686 44.5302 41.483 44.5117C40.1729 44.4379 40.0622 45.2314 40.9295 46.5231Z" fill="#0A8E8A"/>
  <path d="M40.9294 46.5235C41.9443 48.0182 45.3027 50.4724 45.3027 50.4724L45.7641 49.4391C44.5093 47.9813 42.5717 45.7854 41.4645 44.5122C40.1728 44.4383 40.0621 45.2318 40.9294 46.5235Z" fill="#1A2E35"/>
  <path d="M44.7121 49.7713C44.9704 49.1439 46.1145 46.6158 46.3913 46.0807C46.4097 46.0438 46.4466 46.0438 46.4282 46.0807C45.7085 47.9813 45.0258 49.1808 44.749 49.7713C44.7305 49.7897 44.6936 49.7897 44.7121 49.7713Z" fill="#1A2E35"/>
  <path d="M53.459 45.9517C55.1013 45.7302 57.1311 45.3612 58.8472 46.0993C59.1794 46.2469 59.3086 46.4868 59.3086 46.4868C60.0836 46.8005 60.1758 47.2618 60.1758 47.2618C60.8032 47.7785 60.8401 48.2583 60.8401 48.2583C60.8401 48.2583 61.7443 48.6273 61.6152 49.2178C61.4675 49.8821 60.2127 49.2178 59.3086 49.2732C57.2418 49.4024 54.3263 50.1589 53.7358 50.2512L53.459 45.9517Z" fill="#FF9581"/>
  <path d="M57.0203 47.8893C57.6293 47.8708 58.2382 47.8155 58.8472 47.8893C59.5115 47.9446 60.1573 48.1292 60.8032 48.2768C60.8216 48.2768 60.8401 48.2583 60.8216 48.2399C59.696 47.7601 58.2382 47.6309 57.0388 47.8524C56.9834 47.8708 56.9834 47.8893 57.0203 47.8893Z" fill="#1A2E35"/>
  <path d="M56.7621 46.6529C57.3525 46.6529 58.4044 46.6898 60.1574 47.2987C60.1574 47.2987 60.1758 47.2987 60.1574 47.2803C59.0687 46.7267 57.9615 46.5422 56.7621 46.616C56.7251 46.616 56.7251 46.6529 56.7621 46.6529Z" fill="#1A2E35"/>
  <path d="M56.6326 45.9702C57.6475 46.0255 58.2749 46.1916 59.2898 46.4868C59.2898 46.4868 59.3083 46.4868 59.2898 46.4684C58.1642 46.0071 57.7029 45.9517 56.6142 45.9148C56.5957 45.9332 56.5957 45.9702 56.6326 45.9702Z" fill="#1A2E35"/>
  <path d="M56.7988 49.5868C56.5405 49.716 56.5958 49.8452 57.0941 49.9743C57.6108 50.085 59.6959 50.122 59.6221 50.8601C59.5483 51.5982 56.5958 51.5059 55.7655 51.2476C54.9351 50.9892 53.6987 50.288 53.6987 50.288C54.2892 50.1773 55.6547 49.8083 56.7988 49.5868Z" fill="#FF9581"/>
  <path d="M43.107 48.8499C43.0885 49.1636 43.0701 49.4773 43.0147 49.8094C43.0147 49.791 43.0147 49.791 43.0332 49.7725C43.0885 49.6064 43.1624 49.4404 43.2362 49.2743H43.2546C43.2177 49.4404 43.1624 49.6249 43.0885 49.791C43.0516 49.8648 43.0332 49.957 42.9963 50.0309C42.9778 50.1785 42.9409 50.3077 42.9225 50.4553C42.8671 50.7136 42.6272 51.8392 42.5534 52.0238C42.535 52.0607 42.498 52.0607 42.498 52.0053C42.5165 51.8023 42.7195 50.6214 42.7564 50.363C42.8302 49.8463 42.9409 49.3296 43.0885 48.8314C43.0885 48.8314 43.107 48.8499 43.107 48.8499Z" fill="#1A2E35"/>
  <path d="M41.1881 57.2464C40.6898 57.5047 40.0624 57.8922 37.2022 57.3386C37.0177 57.3017 36.8516 57.2648 36.6671 57.2095C33.9914 56.3975 30.7622 53.2421 30.5776 53.0206C30.5776 53.0206 34.8403 46.1193 40.2839 43.9418C40.9482 43.665 42.0738 44.1817 42.6827 44.8276C42.9042 45.049 43.384 46.7467 43.1994 48.1306C43.0149 49.4961 41.6863 56.988 41.1881 57.2464Z" fill="#0A8E8A"/>
  <path d="M40.8004 48.0574C40.8188 48.205 40.8004 48.3526 40.7819 48.5003C40.7635 48.6479 40.7266 48.7771 40.6712 48.9247C40.6528 48.7771 40.6712 48.6294 40.6897 48.4818C40.7266 48.3342 40.745 48.205 40.8004 48.0574Z" fill="white"/>
  <path d="M38.9366 52.7623C38.9551 52.91 38.9366 53.0576 38.9182 53.2052C38.8997 53.3528 38.8628 53.482 38.8074 53.6296C38.789 53.482 38.8074 53.3344 38.8259 53.1867C38.8628 53.0391 38.8813 52.91 38.9366 52.7623Z" fill="white"/>
  <path d="M35.7813 49.2011C35.7998 49.3487 35.7813 49.4964 35.7629 49.644C35.7444 49.7916 35.7075 49.9208 35.6522 50.0684C35.6337 49.9208 35.6522 49.7732 35.6706 49.6255C35.7075 49.4964 35.726 49.3487 35.7813 49.2011Z" fill="white"/>
  <path d="M42.0186 52.5229C42.0371 52.6705 42.0186 52.8181 42.0002 52.9657C41.9817 53.1133 41.9448 53.2425 41.8895 53.3901C41.871 53.2425 41.8895 53.0949 41.9079 52.9473C41.9448 52.7997 41.9633 52.6705 42.0186 52.5229Z" fill="white"/>
  <path d="M37.959 48.5916C38.1066 48.5732 38.2542 48.5916 38.4019 48.6101C38.5495 48.6285 38.6786 48.6654 38.8263 48.7208C38.6786 48.7393 38.531 48.7208 38.3834 48.7023C38.2542 48.6839 38.1066 48.647 37.959 48.5916Z" fill="white"/>
  <path d="M34.3789 52.0061C34.5265 51.9877 34.6742 52.0061 34.8218 52.0246C34.9694 52.043 35.0986 52.0799 35.2462 52.1353C35.0986 52.1537 34.9509 52.1353 34.8033 52.1168C34.6557 52.0799 34.5265 52.0615 34.3789 52.0061Z" fill="white"/>
  <path d="M38.6045 55.6777C38.7521 55.6592 38.8997 55.6777 39.0474 55.6961C39.195 55.7146 39.3242 55.7515 39.4718 55.8068C39.3242 55.8253 39.1765 55.8068 39.0289 55.7884C38.8813 55.7515 38.7337 55.733 38.6045 55.6777Z" fill="white"/>
  <path d="M33.2715 54.3313C33.4191 54.3128 33.5667 54.3313 33.7144 54.3497C33.862 54.3682 33.9911 54.4051 34.1388 54.4605C33.9911 54.4789 33.8435 54.4605 33.6959 54.442C33.5667 54.4235 33.4191 54.3866 33.2715 54.3313Z" fill="white"/>
  <path d="M40.7822 44.7542C40.9298 44.7357 41.0775 44.7542 41.2251 44.7726C41.3727 44.7911 41.5019 44.828 41.6495 44.8833C41.5019 44.9018 41.3543 44.8833 41.2066 44.8649C41.059 44.8464 40.9114 44.8095 40.7822 44.7542Z" fill="white"/>
  <path d="M39.7301 45.9353C39.6379 46.046 39.5271 46.1383 39.4164 46.2305C39.3057 46.3228 39.1765 46.3966 39.0474 46.452C39.1396 46.3413 39.2503 46.249 39.3611 46.1567C39.4718 46.0645 39.601 45.9907 39.7301 45.9353Z" fill="white"/>
  <path d="M34.0465 49.2753C33.9543 49.386 33.8435 49.4783 33.7328 49.5705C33.6221 49.6628 33.4929 49.7366 33.3638 49.792C33.456 49.6812 33.5668 49.589 33.6775 49.4967C33.7882 49.4229 33.9174 49.3306 34.0465 49.2753Z" fill="white"/>
  <path d="M41.1515 50.7879C41.0592 50.8987 40.9485 50.9909 40.8378 51.0832C40.7271 51.1754 40.5979 51.2493 40.4688 51.3046C40.561 51.1939 40.6717 51.1016 40.7824 51.0094C40.8932 50.9171 41.0039 50.8433 41.1515 50.7879Z" fill="white"/>
  <path d="M36.5563 53.6848C36.464 53.7955 36.3533 53.8877 36.2426 53.98C36.1319 54.0723 36.0027 54.1461 35.8735 54.2014C35.9658 54.0907 36.0765 53.9985 36.1872 53.9062C36.298 53.8139 36.4087 53.7401 36.5563 53.6848Z" fill="white"/>
  <path d="M42.9039 46.8395C42.8117 46.9503 42.701 47.0425 42.5902 47.1348C42.4795 47.2271 42.3504 47.3009 42.2212 47.3562C42.3135 47.2455 42.4242 47.1532 42.5349 47.061C42.6456 46.9687 42.7748 46.8949 42.9039 46.8395Z" fill="white"/>
  <path d="M42.8121 50.1793C42.7014 50.087 42.6091 49.9763 42.5168 49.8656C42.4246 49.7549 42.3508 49.6257 42.2954 49.4965C42.4061 49.5888 42.4984 49.6995 42.5907 49.8102C42.6645 49.9209 42.7567 50.0501 42.8121 50.1793Z" fill="white"/>
  <path d="M32.5704 52.5044C32.4597 52.4122 32.3674 52.3015 32.2751 52.1907C32.1829 52.08 32.1091 51.9509 32.0537 51.8217C32.1644 51.914 32.2567 52.0247 32.349 52.1354C32.4228 52.2461 32.515 52.3568 32.5704 52.5044Z" fill="white"/>
  <path d="M41.5753 55.2532C41.4646 55.1609 41.3723 55.0502 41.28 54.9395C41.1878 54.8288 41.114 54.6996 41.0586 54.5704C41.1693 54.6627 41.2616 54.7734 41.3538 54.8841C41.4277 54.9949 41.5015 55.1056 41.5753 55.2532Z" fill="white"/>
  <path d="M37.0548 47.411C36.9441 47.3187 36.8518 47.208 36.7595 47.0973C36.6673 46.9866 36.5934 46.8574 36.5381 46.7282C36.6488 46.8205 36.7411 46.9312 36.8333 47.0419C36.9256 47.1527 36.9994 47.2818 37.0548 47.411Z" fill="white"/>
  <path d="M37.1466 56.8036C37.0358 56.7113 36.9436 56.6006 36.8513 56.4899C36.7591 56.3792 36.6852 56.25 36.6299 56.1208C36.7406 56.2131 36.8329 56.3238 36.9251 56.4345C36.9989 56.5453 37.0728 56.6744 37.1466 56.8036Z" fill="white"/>
  <path d="M37.9034 51.268C37.7927 51.1757 37.7004 51.065 37.6082 50.9543C37.5159 50.8436 37.4421 50.7144 37.3867 50.5852C37.4974 50.6775 37.5897 50.7882 37.682 50.8989C37.7558 51.0097 37.848 51.1204 37.9034 51.268Z" fill="white"/>
  <path d="M41.6864 46.6528C40.9852 46.5236 40.3393 45.0843 40.2471 44.1247C40.2471 44.0509 40.5792 43.5342 40.9483 42.8699C41.1697 42.4639 41.4096 42.0211 41.5941 41.5967C41.631 41.5044 41.8525 41.7996 41.8525 41.7996L42.3507 42.1687L43.993 43.4235C43.993 43.4235 43.3287 44.1985 43.015 44.9551C42.9966 45.0104 42.9781 45.0843 42.9596 45.1396C42.9596 45.1396 42.9596 45.1581 42.9596 45.1765C42.8489 45.5271 42.3692 46.7819 41.6864 46.6528Z" fill="#FF9581"/>
  <path d="M42.9597 45.14C42.9597 45.14 42.9597 45.1584 42.9597 45.1769C42.8675 45.1584 42.7752 45.1215 42.6829 45.0661C40.893 44.2358 41.6865 41.8369 41.6865 41.8369L42.3877 42.1875L44.03 43.4423C44.03 43.4423 43.3657 44.2173 43.052 44.9739C42.9966 45.0292 42.9782 45.0846 42.9597 45.14Z" fill="#1A2E35"/>
  <path d="M45.875 38.3312C45.875 38.3312 46.6869 38.8479 46.7054 39.7705C46.7054 40.6932 46.3363 41.5974 46.2625 41.6343C46.1887 41.6712 45.875 38.3312 45.875 38.3312Z" fill="#1A2E35"/>
  <path d="M41.8155 38.8116C41.3172 39.7896 41.3541 42.8343 41.9631 43.6278C42.8488 44.7719 44.5649 45.1594 45.5983 44.0338C46.5948 42.9451 46.5025 38.9592 45.7828 38.2211C44.7495 37.1139 42.5536 37.3723 41.8155 38.8116Z" fill="#FF9581"/>
  <path d="M44.4358 41.2463L44.4173 41.2648C44.4358 41.4677 44.3989 41.7076 44.2144 41.7814V41.7999C44.4542 41.763 44.4727 41.4493 44.4358 41.2463Z" fill="#1A2E35"/>
  <path d="M44.2328 41.0434C43.9006 41.025 43.8822 41.6893 44.1959 41.7077C44.5096 41.7262 44.528 41.0619 44.2328 41.0434Z" fill="#1A2E35"/>
  <path d="M45.5608 41.2463L45.5793 41.2648C45.5608 41.4677 45.5977 41.7076 45.7822 41.7814V41.7999C45.5608 41.763 45.5239 41.4308 45.5608 41.2463Z" fill="#1A2E35"/>
  <path d="M45.7636 41.0249C46.0957 41.0064 46.1142 41.6707 45.8005 41.6892C45.4868 41.7261 45.4683 41.0433 45.7636 41.0249Z" fill="#1A2E35"/>
  <path d="M44.0293 40.5268C44.1216 40.5084 44.1954 40.4715 44.2877 40.4346C44.3799 40.3976 44.4722 40.3792 44.546 40.2869C44.5829 40.2316 44.5645 40.1578 44.5276 40.1209C44.4353 40.0286 44.2877 40.047 44.1769 40.0839C44.0478 40.1209 43.9555 40.1947 43.8817 40.3054C43.7894 40.4161 43.9002 40.5637 44.0293 40.5268Z" fill="#1A2E35"/>
  <path d="M45.9853 40.8221C45.893 40.8037 45.8007 40.7668 45.7269 40.7483C45.6162 40.7114 45.5424 40.7114 45.4686 40.6192C45.4317 40.5823 45.4317 40.49 45.487 40.4531C45.5793 40.3608 45.7085 40.3608 45.8376 40.3977C45.9668 40.4346 46.0591 40.49 46.1513 40.6007C46.2252 40.693 46.1144 40.8406 45.9853 40.8221Z" fill="#1A2E35"/>
  <path d="M43.9554 43.221C44.0107 43.2763 44.0476 43.3317 44.1214 43.3501C44.1952 43.3501 44.2875 43.3317 44.3429 43.2948C44.3429 43.2948 44.3613 43.2948 44.3429 43.3132C44.2875 43.3871 44.1768 43.4424 44.0845 43.424C43.9923 43.4055 43.9369 43.3317 43.9185 43.2394C43.9369 43.221 43.9554 43.221 43.9554 43.221Z" fill="#1A2E35"/>
  <path d="M45.1546 42.335C45.1546 42.335 45.1546 42.6487 45.1546 42.7963C45.1546 42.8148 44.7486 42.7225 44.3058 42.8332C44.232 42.8517 44.2504 42.7963 44.3242 42.7594C44.4719 42.6856 44.6748 42.6303 45.0439 42.6672C45.0623 42.6303 45.0254 42.1874 45.0439 42.1874C45.1177 42.1874 45.2653 42.2612 45.3576 42.2981C45.3576 41.6523 45.2469 41.0064 45.2653 40.3605C45.2653 40.3421 45.3022 40.3421 45.3022 40.3605C45.4499 41.0249 45.4683 41.7814 45.4868 42.4457C45.5052 42.5011 45.21 42.3719 45.1546 42.335Z" fill="#1A2E35"/>
  <path d="M44.749 42.6855C44.749 42.6855 44.6013 43.0546 44.3614 43.1469C44.0846 43.2576 43.9924 42.9992 44.2692 42.7778C44.4168 42.6671 44.749 42.6855 44.749 42.6855Z" fill="#1A2E35"/>
  <path d="M44.4535 43.0916C44.4166 43.11 44.3982 43.1285 44.3613 43.1469C44.1029 43.2576 44.0107 43.0362 44.2136 42.8332C44.3428 42.8517 44.5089 42.8886 44.4535 43.0916Z" fill="#FF99BC"/>
  <path d="M41.6862 41.4129C42.0184 41.5237 42.4059 40.5087 42.5166 40.1028C42.6089 39.7522 42.7196 38.6634 42.738 38.5896C42.7565 38.5158 44.2143 39.5492 45.0631 39.3093C45.9119 39.0694 46.484 38.2944 46.5024 37.9438C46.5209 37.5932 45.4506 36.689 44.5464 36.6336C43.6238 36.5783 42.3874 37.7408 42.3874 37.7408C42.3874 37.7408 42.8118 37.2426 42.7934 37.2057C42.7749 37.1688 42.1844 37.4087 42.0737 37.8146C42.0737 37.8146 42.1844 37.2795 42.1475 37.2795C42.1106 37.261 41.6493 37.7224 41.7416 38.073C41.7416 38.073 41.2064 38.5343 41.1695 39.0325C41.1142 39.5492 41.2802 41.3022 41.6862 41.4129Z" fill="#1A2E35"/>
  <path d="M45.6721 39.1432C45.4138 39.2539 45.1554 39.4016 44.8602 39.4385C44.5465 39.4754 44.2328 39.4016 43.9375 39.2908C43.6423 39.1801 43.3839 39.014 43.1256 38.8111C42.9042 38.645 42.7196 38.4235 42.4982 38.2759C42.4428 38.239 42.369 38.3128 42.4059 38.3682C42.7565 38.8849 43.3655 39.3093 43.956 39.5123C44.5834 39.6968 45.1739 39.5676 45.6721 39.1432Z" fill="#1A2E35"/>
  <path d="M42.0367 41.3201C42.0367 41.3201 41.5201 40.2499 41.0403 40.4344C40.5605 40.6005 40.8558 42.0767 41.3355 42.3535C41.8153 42.6303 42.0736 42.1874 42.0736 42.1874L42.0367 41.3201Z" fill="#FF9581"/>
  <path d="M41.1327 40.8588C41.1143 40.8588 41.1327 40.8588 41.1327 40.8588C41.4649 41.0803 41.594 41.4309 41.6863 41.7999C41.594 41.6523 41.4649 41.56 41.2619 41.6523C41.2434 41.6523 41.2619 41.6708 41.2619 41.6708C41.4095 41.6708 41.5202 41.7077 41.594 41.8368C41.6494 41.9291 41.6863 42.0398 41.7232 42.1505C41.7417 42.1874 41.797 42.169 41.797 42.1321C41.8708 41.6708 41.6125 40.9695 41.1327 40.8588Z" fill="#1A2E35"/>
  <path d="M38.5673 46.0816C38.1983 48.1668 40.468 55.2158 41.9258 56.5259C44.0847 58.4819 48.089 59.7736 49.5284 60.1796C50.1558 60.3641 51.9088 55.917 51.2629 55.6217C49.8974 54.9943 45.6532 53.6657 45.2473 53.3336C44.8413 53.0014 42.4055 49.4769 41.3168 47.4471C39.8775 44.753 38.7519 45.0113 38.5673 46.0816Z" fill="#FF9581"/>
  <path d="M50.1925 55.2524C50.1925 55.2524 52.0747 55.7322 53.2926 56.1012C53.9753 56.3042 55.1009 56.7655 55.5254 57.1531C56.1712 57.7251 58.4963 60.5115 57.832 61.0835C57.223 61.6002 55.5438 58.9614 55.5438 58.9614C55.5438 58.9614 57.4814 61.4895 56.651 61.9877C55.8022 62.4859 54.3075 59.2382 54.3075 59.2382C54.3075 59.2382 56.245 61.877 55.3039 62.2461C54.5843 62.5229 53.0527 59.6627 53.0527 59.6627C53.0527 59.6627 54.695 61.9508 53.9753 62.2645C53.1818 62.6151 51.5949 60.0686 51.5949 60.0686C49.6204 60.5853 48.4579 60.0133 47.7013 59.515C47.4799 59.3859 50.1925 55.2524 50.1925 55.2524Z" fill="#FF9581"/>
  <path d="M54.9342 58.0387C55.1741 58.3339 55.414 58.6107 55.6355 58.9244C55.8569 59.2381 56.0414 59.5518 56.226 59.884C56.6688 60.6774 56.8349 61.2495 56.8164 61.231C56.5027 60.4191 55.7646 59.3119 55.5432 58.9982C55.3218 58.6661 55.1188 58.3524 54.9342 58.0387C54.9158 58.0387 54.9158 58.0387 54.9342 58.0387Z" fill="#1A2E35"/>
  <path d="M53.79 58.7768C54.196 59.1089 55.0633 60.3084 55.3954 61.1203C55.4139 61.1572 55.3954 61.1572 55.377 61.1203C55.1186 60.7328 54.0668 59.1828 53.79 58.7768Z" fill="#1A2E35"/>
  <path d="M52.72 59.2566C53.1998 59.7179 53.5873 60.3637 53.901 61.1019C53.9195 61.1388 53.8825 61.1388 53.8641 61.1019C53.4766 60.4745 53.1813 59.9947 52.6831 59.275C52.6831 59.2566 52.7016 59.2381 52.72 59.2566Z" fill="#1A2E35"/>
  <path d="M40.6337 46.2293C38.9545 43.8488 37.9396 44.7346 38.2718 47.318C38.5855 49.7353 39.4343 52.614 39.4343 52.614L43.6785 50.5472C43.6969 50.5472 41.704 47.7608 40.6337 46.2293Z" fill="#0A8E8A"/>
  <path d="M41.6484 47.1706C41.7038 47.2998 41.7407 47.4474 41.7592 47.595C41.7776 47.7426 41.7961 47.8903 41.7961 48.0379C41.7407 47.9087 41.7038 47.7611 41.6853 47.6135C41.6669 47.4658 41.6484 47.3182 41.6484 47.1706Z" fill="white"/>
  <path d="M39.1392 48.6096C39.2683 48.5543 39.416 48.5174 39.5636 48.4989C39.7112 48.4805 39.8588 48.462 40.0064 48.462C39.8773 48.5174 39.7297 48.5543 39.582 48.5727C39.4344 48.6096 39.2868 48.6281 39.1392 48.6096Z" fill="white"/>
  <path d="M39.2496 44.9008C39.1942 45.0484 39.1204 45.1591 39.0282 45.2883C38.9359 45.399 38.8621 45.5282 38.7329 45.6205C38.7883 45.4728 38.8621 45.3621 38.9543 45.2329C39.0466 45.1222 39.1389 45.0115 39.2496 44.9008Z" fill="white"/>
  <path d="M42.8482 49.7352C42.7929 49.8829 42.7191 49.9936 42.6268 50.1227C42.5345 50.2335 42.4607 50.3626 42.3315 50.4549C42.3869 50.3073 42.4607 50.1966 42.553 50.0674C42.6452 49.9382 42.7191 49.8275 42.8482 49.7352Z" fill="white"/>
  <path d="M39.8954 51.1743C39.7478 51.119 39.6371 51.0452 39.5079 50.9529C39.3972 50.8606 39.268 50.7868 39.1758 50.6577C39.3234 50.713 39.4341 50.7868 39.5633 50.8791C39.6925 50.9714 39.8032 51.0636 39.8954 51.1743Z" fill="white"/>
  <path d="M41.1874 46.9489C41.4088 47.2626 41.6487 47.5578 41.8886 47.8715C41.8333 47.7239 41.7779 47.5578 41.741 47.4102C41.741 47.4102 41.741 47.3917 41.7594 47.4102C41.8148 47.5394 41.8517 47.6501 41.9071 47.7793C41.9255 47.8346 41.944 47.89 41.9809 47.9638C41.9809 47.9822 41.9993 47.9822 41.9993 48.0007C42.1839 48.2406 42.3684 48.4805 42.5345 48.7204C42.7374 49.0156 42.9404 49.3108 43.1434 49.6061C43.3464 49.9198 43.5494 50.2704 43.7708 50.5656C43.7893 50.5841 43.4017 50.7502 43.3648 50.7686C43.3279 50.7871 43.3095 50.7502 43.3464 50.7317C43.3833 50.7133 43.697 50.5287 43.697 50.5287C43.494 50.2335 43.2541 49.9567 43.0511 49.6615C42.8482 49.3662 42.6267 49.0894 42.4237 48.7942C41.9809 48.1668 41.5934 47.5578 41.1874 46.9489C41.1874 46.9304 41.1689 46.9489 41.1874 46.9489Z" fill="#1A2E35"/>
  <path d="M38.3826 49.0341C38.4564 49.1633 38.5118 49.2924 38.5671 49.4216C38.5856 49.477 38.6225 49.5323 38.6409 49.5877C38.5487 49.1264 38.4564 48.665 38.3457 48.2037C38.5487 48.9418 38.7332 49.6984 38.9177 50.455C39.0838 51.1746 39.3053 51.8943 39.3975 52.6324C39.4529 52.6139 39.785 52.4848 39.8035 52.5032C39.8219 52.5217 39.3791 52.7247 39.3606 52.7247C39.1207 52.005 38.9731 51.1931 38.807 50.4734C38.7701 50.2704 38.7148 50.0674 38.6779 49.846C38.6225 49.7168 38.5671 49.6061 38.5118 49.477C38.4749 49.2924 38.4195 49.1633 38.3826 49.0341C38.3826 49.0156 38.3642 49.0156 38.3826 49.0341Z" fill="#1A2E35"/>
  <path d="M39.5081 51.9127C40.0986 51.5806 42.5713 50.3073 43.1249 50.0675C43.1618 50.049 43.1803 50.0675 43.1434 50.0859C41.3903 51.1193 40.1171 51.636 39.5266 51.9312C39.5081 51.9312 39.4897 51.9127 39.5081 51.9127Z" fill="#1A2E35"/>
  <path d="M107.121 100.426H50.8945L59.0323 54.3117H115.258L107.121 100.426Z" fill="#0CB2AC"/>
  <path d="M78.2786 49.5323H59.8811L59.0322 54.3116H78.7215L78.2786 49.5323Z" fill="#0CB2AC"/>
  <g opacity="0.1">
    <path opacity="0.1" d="M107.121 100.426H50.8945L59.0323 54.3117H115.258L107.121 100.426Z" fill="black"/>
    <path opacity="0.1" d="M78.2786 49.5323H59.8811L59.0322 54.3116H78.7215L78.2786 49.5323Z" fill="black"/>
  </g>
  <path d="M57.8877 51.4885C57.8139 51.2117 57.7954 50.9534 57.7954 50.6766C57.7954 50.3998 57.8139 50.1415 57.8877 49.8647C57.9615 50.1415 57.9799 50.3998 57.9799 50.6766C57.9799 50.9534 57.9615 51.2117 57.8877 51.4885Z" fill="#1A2E35"/>
  <path d="M56.2456 51.9498C56.0426 51.7468 55.895 51.5254 55.7659 51.304C55.6367 51.0641 55.5075 50.8242 55.4521 50.5659C55.6551 50.7688 55.8028 50.9903 55.9319 51.2117C56.0611 51.4516 56.1903 51.6915 56.2456 51.9498Z" fill="#1A2E35"/>
  <path d="M55.0646 53.186C54.7878 53.1122 54.548 53.0015 54.3265 52.8723C54.1051 52.7432 53.8652 52.5955 53.6807 52.3925C53.9575 52.4664 54.1973 52.5771 54.4188 52.7062C54.6587 52.8354 54.8801 52.983 55.0646 53.186Z" fill="#1A2E35"/>
  <path d="M54.6585 54.8282C54.3817 54.902 54.1234 54.9204 53.8466 54.9204C53.5698 54.9204 53.3115 54.902 53.0347 54.8282C53.3115 54.7544 53.5698 54.7359 53.8466 54.7359C54.1234 54.7544 54.4002 54.7728 54.6585 54.8282Z" fill="#1A2E35"/>
  <path d="M55.1384 56.4705C54.9354 56.6734 54.7139 56.8211 54.4925 56.9502C54.2526 57.0794 54.0127 57.2086 53.7544 57.2639C53.9574 57.061 54.1788 56.9133 54.4002 56.7842C54.6217 56.655 54.8616 56.5443 55.1384 56.4705Z" fill="#1A2E35"/>
  <path d="M56.3565 57.6519C56.2827 57.9287 56.1719 58.1686 56.0428 58.39C55.9136 58.6114 55.766 58.8513 55.563 59.0359C55.6368 58.7591 55.7475 58.5192 55.8767 58.2977C56.0243 58.0763 56.1719 57.8549 56.3565 57.6519Z" fill="#1A2E35"/>
  <path d="M58.0176 58.0576C58.0914 58.3344 58.1098 58.5928 58.1098 58.8696C58.1098 59.1464 58.0914 59.4047 58.0176 59.6815C57.9437 59.4047 57.9253 59.1464 57.9253 58.8696C57.9253 58.5928 57.9437 58.3344 58.0176 58.0576Z" fill="#1A2E35"/>
  <path d="M59.6597 57.5774C59.8626 57.7803 60.0103 58.0018 60.1394 58.2232C60.2686 58.4631 60.3978 58.703 60.4531 58.9613C60.2502 58.7583 60.1025 58.5369 59.9734 58.3155C59.8442 58.094 59.715 57.8542 59.6597 57.5774Z" fill="#1A2E35"/>
  <path d="M60.8408 56.3605C61.1176 56.4343 61.3575 56.545 61.5789 56.6742C61.8004 56.8033 62.0403 56.951 62.2248 57.1539C61.948 57.0801 61.7081 56.9694 61.4867 56.8402C61.2468 56.7111 61.0253 56.5635 60.8408 56.3605Z" fill="#1A2E35"/>
  <path d="M61.2461 54.6996C61.5229 54.6258 61.7812 54.6074 62.058 54.6074C62.3348 54.6074 62.5932 54.6258 62.8699 54.6996C62.5932 54.7734 62.3348 54.7919 62.058 54.7919C61.7812 54.7919 61.5044 54.7734 61.2461 54.6996Z" fill="#1A2E35"/>
  <path d="M60.7666 53.0757C60.9696 52.8727 61.191 52.7251 61.4125 52.5959C61.6523 52.4667 61.8922 52.3376 62.1506 52.2822C61.9476 52.4852 61.7262 52.6328 61.5047 52.762C61.2833 52.8911 61.0434 53.0019 60.7666 53.0757Z" fill="#1A2E35"/>
  <path d="M59.5488 51.8949C59.6226 51.6181 59.7334 51.3782 59.8625 51.1567C59.9917 50.9353 60.1393 50.6954 60.3423 50.5109C60.2685 50.7877 60.1578 51.0276 60.0286 51.249C59.881 51.4704 59.7334 51.6919 59.5488 51.8949Z" fill="#1A2E35"/>
  <path d="M107.046 100.425H50.6913L42.7012 55.9908H99.0379L107.046 100.425Z" fill="#0CB2AC"/>
  <path d="M62.2244 83.153C63.5187 83.153 64.5679 82.1038 64.5679 80.8095C64.5679 79.5152 63.5187 78.466 62.2244 78.466C60.9301 78.466 59.8809 79.5152 59.8809 80.8095C59.8809 82.1038 60.9301 83.153 62.2244 83.153Z" fill="#1A2E35"/>
  <path d="M80.7327 83.153C82.027 83.153 83.0762 82.1038 83.0762 80.8095C83.0762 79.5152 82.027 78.466 80.7327 78.466C79.4384 78.466 78.3892 79.5152 78.3892 80.8095C78.3892 82.1038 79.4384 83.153 80.7327 83.153Z" fill="#1A2E35"/>
  <path d="M74.8461 83.5222L74.717 83.2823C74.6985 83.2638 73.4991 81.031 71.0633 81.031C68.849 81.031 68.2954 83.1347 68.2769 83.2269L68.2031 83.5037L67.668 83.3746L67.7233 83.0978C67.7233 83.0793 68.3876 80.4774 71.0448 80.4774C73.8128 80.4774 75.1414 82.9317 75.1968 83.0239L75.3259 83.2638L74.8461 83.5222Z" fill="#1A2E35"/>
  <path d="M103.299 80.5338C103.428 80.5153 103.539 80.4784 103.65 80.4415" stroke="#1A2E35" stroke-miterlimit="10"/>
  <path d="M104.37 80.2384C107.193 79.2789 109.555 77.0645 109.776 74.4627C110.274 68.7423 103.299 65.5868 104.019 58.9807C104.702 52.6698 111.326 52.2269 113.965 53.0942C116.899 54.0538 115.884 56.8771 113.245 56.508C108.651 55.8806 105.754 50.8799 107.949 45.2148C109.573 40.9707 113.651 39.3837 115.294 38.9039" stroke="#1A2E35" stroke-miterlimit="10" stroke-dasharray="4 4"/>
  <path d="M115.645 38.7933C115.866 38.7379 115.995 38.701 115.995 38.701" stroke="#1A2E35" stroke-miterlimit="10"/>
  <path d="M118.929 37.7044C118.449 36.2466 115.312 36.7633 115.921 38.6824C116.549 40.583 119.409 39.1621 118.929 37.7044Z" fill="#1A2E35"/>
  <path d="M114.205 37.114C114.224 36.4681 115.11 35.9884 116.383 36.2098C117.638 36.4312 118.819 37.2801 118.819 37.2801C118.819 37.2801 117.582 38.0366 116.309 38.1843C115.036 38.3134 114.187 37.7598 114.205 37.114Z" fill="#0CB2AC" fill-opacity="0.5"/>
  <path d="M118.819 37.2804C118.173 37.2804 117.509 37.262 116.863 37.2435C116.217 37.2066 115.553 37.1881 114.907 37.1328C115.553 37.1328 116.217 37.1512 116.863 37.1697C117.527 37.2066 118.173 37.225 118.819 37.2804Z" fill="#1A2E35"/>
  <path d="M115.479 36.5423C115.663 36.6345 115.848 36.7268 116.014 36.8375C116.18 36.9482 116.364 37.0589 116.512 37.1881C116.327 37.0959 116.143 37.0036 115.977 36.8929C115.811 36.7822 115.626 36.6714 115.479 36.5423Z" fill="#1A2E35"/>
  <path d="M117.176 37.2251C117.01 37.3727 116.826 37.4834 116.66 37.5941C116.475 37.7048 116.29 37.8156 116.106 37.9078C116.272 37.7602 116.457 37.6495 116.623 37.5388C116.807 37.428 116.992 37.3173 117.176 37.2251Z" fill="#1A2E35"/>
  <path d="M117.379 36.856C117.472 36.8929 117.564 36.9667 117.638 37.0221C117.712 37.0959 117.785 37.1512 117.859 37.2435C117.767 37.2066 117.675 37.1328 117.601 37.0774C117.509 37.0036 117.435 36.9483 117.379 36.856Z" fill="#1A2E35"/>
  <path d="M115.405 40.8965C115.793 41.3948 116.808 41.284 117.693 40.3614C118.579 39.4387 119.041 38.0548 119.041 38.0548C119.041 38.0548 117.583 38.1655 116.476 38.7929C115.387 39.4572 115.018 40.3983 115.405 40.8965Z" fill="#0CB2AC" fill-opacity="0.5"/>
  <path d="M119.06 38.0728C118.524 38.4604 118.008 38.8479 117.491 39.2538C116.974 39.6598 116.458 40.0658 115.959 40.4902C116.495 40.1211 117.011 39.7152 117.528 39.3092C118.045 38.9032 118.561 38.4973 119.06 38.0728Z" fill="#1A2E35"/>
  <path d="M116.771 40.6193C116.882 40.4347 116.956 40.2502 117.03 40.0657C117.104 39.8812 117.177 39.6782 117.233 39.4752C117.122 39.6597 117.048 39.8442 116.974 40.0288C116.901 40.2318 116.827 40.4163 116.771 40.6193Z" fill="#1A2E35"/>
  <path d="M117.768 39.0693C117.546 39.0508 117.343 39.0693 117.122 39.0693C116.9 39.0878 116.698 39.1062 116.476 39.1431C116.698 39.1616 116.9 39.1431 117.122 39.1431C117.325 39.1247 117.546 39.1247 117.768 39.0693Z" fill="#1A2E35"/>
  <path d="M118.119 39.2538C118.174 39.1615 118.211 39.0692 118.229 38.9585C118.248 38.8662 118.285 38.7555 118.285 38.6448C118.229 38.7371 118.192 38.8293 118.174 38.9401C118.156 39.0508 118.119 39.1615 118.119 39.2538Z" fill="#1A2E35"/>
  <path d="M118.929 37.7042C118.634 37.7965 118.321 37.6304 118.228 37.3536C118.136 37.0584 118.302 36.7447 118.579 36.6524C118.856 36.5602 119.188 36.7262 119.28 37.003C119.391 37.2983 119.225 37.612 118.929 37.7042Z" fill="#375A64"/>
  <path d="M119.28 38.7561C118.985 38.8484 118.671 38.6823 118.579 38.4055C118.487 38.1102 118.653 37.7965 118.929 37.7043C119.225 37.612 119.538 37.7781 119.631 38.0549C119.723 38.3501 119.557 38.6638 119.28 38.7561Z" fill="#375A64"/>
  <path d="M58.7744 38.2751C58.5161 40.8031 56.2464 42.6299 53.7183 42.3716C52.7034 42.2609 51.7992 41.8365 51.0796 41.1906L48.7729 41.5228L49.917 39.5298C49.6402 38.8471 49.5111 38.0905 49.6033 37.3155C49.8617 34.7875 52.1314 32.9606 54.6594 33.219C57.2059 33.4957 59.0328 35.747 58.7744 38.2751Z" fill="white"/>
  <path d="M58.7742 38.2751C58.6819 39.1239 58.3682 39.9358 57.8516 40.6001C57.7224 40.7662 57.5748 40.9138 57.4271 41.0799C57.2611 41.2275 57.1134 41.3752 56.9474 41.4859C56.6152 41.7442 56.2277 41.9472 55.8402 42.0948C55.4527 42.2609 55.0283 42.3347 54.6038 42.3901C54.3824 42.4085 54.1794 42.427 53.958 42.4085C53.7366 42.4085 53.5336 42.3716 53.3306 42.3347C52.4818 42.1871 51.6883 41.7811 51.0609 41.2091L51.1162 41.2275L48.8096 41.5781L48.6436 41.5966L48.7358 41.449L49.8799 39.4561V39.5299C49.3263 38.2197 49.4555 36.6512 50.1567 35.4333C50.5073 34.8244 51.0055 34.2892 51.596 33.9017C52.1865 33.5142 52.8693 33.2559 53.552 33.1636C54.2532 33.0713 54.9729 33.1267 55.6372 33.3481C56.3015 33.5696 56.9105 33.9571 57.4087 34.4369C58.4236 35.4518 58.9218 36.8911 58.7742 38.2751ZM58.7742 38.2751C58.9218 36.8911 58.3867 35.4518 57.3718 34.4922C56.8736 34.0124 56.2646 33.6618 55.6003 33.4404C54.936 33.2374 54.2348 33.1821 53.552 33.2928C52.8693 33.4035 52.2234 33.6434 51.6514 34.0494C51.0978 34.4369 50.618 34.9535 50.2674 35.544C49.9168 36.1345 49.7323 36.8173 49.6769 37.4816C49.64 38.1643 49.7507 38.8471 50.0091 39.493L50.0275 39.5299L50.0091 39.5668L48.8465 41.5597L48.7727 41.4305L51.0793 41.1168H51.1162L51.1347 41.1353C51.7436 41.7073 52.5187 42.1133 53.3306 42.2609C53.5336 42.2978 53.7366 42.3347 53.958 42.3347C54.161 42.3532 54.3824 42.3347 54.5854 42.3347C55.0098 42.2978 55.4158 42.224 55.8217 42.0579C56.2092 41.9103 56.5968 41.7258 56.9289 41.4674C57.1134 41.3567 57.2611 41.1906 57.4087 41.0615C57.5563 40.9138 57.7039 40.7662 57.8331 40.5817C58.3682 39.9358 58.6819 39.1239 58.7742 38.2751Z" fill="#1A2E35"/>
  <path d="M51.9468 39.9361C51.9468 39.6593 52.1313 39.4563 52.3897 39.4563C52.6664 39.4563 52.8325 39.6593 52.8325 39.9361C52.8325 40.1944 52.648 40.4159 52.3897 40.4159C52.1313 40.4159 51.9468 40.2129 51.9468 39.9361ZM52.1498 38.8474L52.039 35.1937H52.7772L52.6664 38.8474H52.1498Z" fill="#0CB2AC"/>
  <path d="M53.6997 39.9361C53.6997 39.6593 53.8842 39.4563 54.1426 39.4563C54.4194 39.4563 54.5854 39.6593 54.5854 39.9361C54.5854 40.1944 54.4009 40.4159 54.1426 40.4159C53.8842 40.4159 53.6997 40.2129 53.6997 39.9361ZM53.9027 38.8474L53.792 35.1937H54.5301L54.4194 38.8474H53.9027Z" fill="#0CB2AC"/>
  <path d="M55.4712 39.9361C55.4712 39.6593 55.6557 39.4563 55.9141 39.4563C56.1909 39.4563 56.3569 39.6593 56.3569 39.9361C56.3569 40.1944 56.1724 40.4159 55.9141 40.4159C55.6373 40.4159 55.4712 40.2129 55.4712 39.9361ZM55.6557 38.8474L55.545 35.1937H56.2831L56.1724 38.8474H55.6557Z" fill="#0CB2AC"/>
</svg>