<svg xmlns="http://www.w3.org/2000/svg" width="131" height="131" viewBox="0 0 131 131" fill="none">
  <path d="M29.1286 44.1539L4.88086 60.3736L28.7658 96.0807L53.0136 79.861L29.1286 44.1539Z" fill="#0CB2AC" fill-opacity="0.1"/>
  <path d="M40.487 78.1757L40.2061 79.8612L28.1699 78.1325L28.4292 76.4254L40.487 78.1757Z" fill="#E1E1E1"/>
  <path d="M34.4143 72.0836L36.143 72.3429L34.2414 84.2062L32.5127 83.9685L34.4143 72.0836Z" fill="#E1E1E1"/>
  <path d="M23.3306 57.0057C23.3522 57.0273 20.9104 58.6912 17.9068 60.7008C14.8815 62.7105 12.4397 64.3311 12.4181 64.3095C12.3965 64.2879 14.8383 62.624 17.8419 60.6144C20.8456 58.6048 23.309 56.9841 23.3306 57.0057Z" fill="#0A8E8A"/>
  <path d="M32.2296 54.7732C32.2512 54.7948 28.2103 57.5391 23.197 60.8669C18.2054 64.2163 14.1213 66.8958 14.0997 66.8742C14.0781 66.8526 18.119 64.1082 23.1322 60.7805C28.1455 57.4311 32.208 54.7516 32.2296 54.7732Z" fill="#0A8E8A"/>
  <path d="M34.0245 57.4503C34.0461 57.4719 30.0052 60.2163 24.992 63.544C20.0003 66.8934 15.9162 69.5729 15.8946 69.5513C15.873 69.5297 19.9139 66.7854 24.9271 63.4576C29.9404 60.1082 34.0029 57.4071 34.0245 57.4503Z" fill="#0A8E8A"/>
  <path d="M35.8194 60.1082C35.841 60.1298 31.8002 62.8741 26.7869 66.2019C21.7952 69.5512 17.7111 72.2308 17.6895 72.2091C17.6679 72.1875 21.7088 69.4432 26.7221 66.1154C31.7353 62.7877 35.7978 60.0866 35.8194 60.1082Z" fill="#0A8E8A"/>
  <path d="M37.5909 62.7888C37.6125 62.8104 33.5716 65.5548 28.5584 68.8825C23.5667 72.2319 19.4826 74.9114 19.461 74.8898C19.4394 74.8682 23.4803 72.1239 28.4935 68.7961C33.5068 65.4467 37.5693 62.7672 37.5909 62.7888Z" fill="#0A8E8A"/>
  <path d="M110.222 68.0724L89.8535 81.6969L109.906 111.674L130.274 98.0498L110.222 68.0724Z" fill="#F5F5F5"/>
  <path d="M119.75 96.6555L119.512 98.0817L109.399 96.6123L109.637 95.1861L119.75 96.6555Z" fill="#E1E1E1"/>
  <path d="M114.649 91.5592L116.097 91.7537L114.498 101.737L113.05 101.521L114.649 91.5592Z" fill="#E1E1E1"/>
  <path d="M105.338 78.8719C105.36 78.8935 103.307 80.2981 100.779 81.9836C98.2505 83.6691 96.1761 85.0305 96.1545 85.0089C96.1329 84.9872 98.1857 83.5827 100.714 81.8972C103.242 80.2117 105.317 78.8503 105.338 78.8719Z" fill="#E1E1E1"/>
  <path d="M112.81 76.9851C112.832 77.0067 109.439 79.3189 105.247 82.128C101.055 84.9372 97.6192 87.1845 97.6192 87.1629C97.5976 87.1413 100.99 84.8291 105.204 82.02C109.374 79.2324 112.789 76.9635 112.81 76.9851Z" fill="#E1E1E1"/>
  <path d="M114.328 79.2429C114.349 79.2645 110.957 81.5767 106.765 84.3858C102.573 87.195 99.1368 89.4423 99.1368 89.4207C99.1152 89.3991 102.508 87.0869 106.722 84.2778C110.892 81.4902 114.306 79.2213 114.328 79.2429Z" fill="#E1E1E1"/>
  <path d="M115.814 81.4861C115.836 81.5077 112.443 83.8198 108.251 86.629C104.059 89.4382 100.623 91.6855 100.623 91.6639C100.602 91.6423 103.994 89.3301 108.208 86.521C112.378 83.7118 115.793 81.4645 115.814 81.4861Z" fill="#E1E1E1"/>
  <path d="M117.328 83.7263C117.349 83.7479 113.957 86.0601 109.765 88.8692C105.573 91.6784 102.137 93.9257 102.137 93.9041C102.115 93.8825 105.508 91.5704 109.722 88.7612C113.892 85.952 117.306 83.7047 117.328 83.7263Z" fill="#E1E1E1"/>
  <path d="M77.9942 45.4641L55.7764 33.5816L38.2788 66.2986L60.4966 78.181L77.9942 45.4641Z" fill="#0CB2AC" fill-opacity="0.1"/>
  <path d="M56.6928 67.9492L55.2883 68.4246L51.7012 58.5277L53.1274 58.0523L56.6928 67.9492Z" fill="#55C9C5"/>
  <path d="M58.8534 60.8423L59.372 62.2685L49.54 65.6395L49.043 64.2133L58.8534 60.8423Z" fill="#55C9C5"/>
  <path d="M65.8342 46.2631C65.8126 46.3063 63.5652 45.1178 60.7993 43.6484C58.0334 42.179 55.8076 40.9473 55.8293 40.9041C55.8509 40.8608 58.0982 42.0493 60.8641 43.5187C63.6301 45.0098 65.8558 46.2199 65.8342 46.2631Z" fill="#0A8E8A"/>
  <path d="M71.1718 52.1316C71.1502 52.1748 67.4335 50.2084 62.8524 47.745C58.2713 45.3031 54.5762 43.2719 54.5762 43.2503C54.5978 43.2071 58.3145 45.1735 62.8956 47.6369C67.4767 50.1003 71.1934 52.11 71.1718 52.1316Z" fill="#0A8E8A"/>
  <path d="M69.8505 54.6013C69.8289 54.6445 66.1122 52.6781 61.5311 50.2147C56.95 47.7729 53.2549 45.7416 53.2549 45.72C53.2765 45.6768 56.9932 47.6432 61.5743 50.1066C66.177 52.5484 69.8721 54.5581 69.8505 54.6013Z" fill="#0A8E8A"/>
  <path d="M68.5575 57.0339C68.5359 57.0771 64.8192 55.1107 60.2381 52.6473C55.657 50.2055 51.9619 48.1743 51.9619 48.1526C51.9835 48.1094 55.7003 50.0758 60.2813 52.5393C64.8624 54.9811 68.5792 56.9907 68.5575 57.0339Z" fill="#0A8E8A"/>
  <path d="M67.2382 59.4792C67.2166 59.5224 63.4999 57.556 58.9188 55.0926C54.3377 52.6508 50.6426 50.6196 50.6426 50.598C50.6642 50.5547 54.3809 52.5211 58.962 54.9846C63.5647 57.448 67.2598 59.4576 67.2382 59.4792Z" fill="#0A8E8A"/>
  <path opacity="0.2" d="M67.3675 17.7359H66.8057V27.2438H67.3675V17.7359Z" fill="black"/>
  <path d="M54.0635 38.7416H80.1022C80.1022 38.7416 77.7036 27.2457 66.8992 27.2457C57.2832 27.2457 54.0635 38.7416 54.0635 38.7416Z" fill="#0CB2AC"/>
  <path d="M67.3724 17.7359H66.8105V27.2438H67.3724V17.7359Z" fill="#0CB2AC"/>
  <path d="M125.045 112.771C125.045 112.793 97.1049 112.836 62.6603 112.836C28.1941 112.836 0.275391 112.815 0.275391 112.771C0.275391 112.75 28.1941 112.707 62.6603 112.707C97.1049 112.728 125.045 112.75 125.045 112.771Z" fill="#1A2E35"/>
  <path d="M7.18984 99.2477C7.92454 99.2693 8.61602 99.6798 9.09142 100.22C9.56681 100.76 9.86934 101.452 10.0638 102.165C10.4312 103.526 10.2151 105.147 9.80451 106.508C8.33511 105.99 7.40592 104.412 6.99536 103.569C6.34709 102.251 5.95813 99.4853 7.18984 99.2477Z" fill="#0CB2AC"/>
  <path d="M11.9221 108.174C11.4467 107.504 11.4467 106.575 11.8141 105.84C12.1814 105.106 12.8945 104.587 13.6725 104.349C14.0398 104.241 14.4504 104.198 14.7745 104.392C15.077 104.587 15.1851 104.976 15.1635 105.322C15.1203 105.667 14.9474 105.992 14.7313 106.272C14.0182 107.245 13.1322 108.066 11.9221 108.174Z" fill="#0CB2AC"/>
  <path d="M12.0927 112.733C12.0927 112.733 12.0711 112.625 12.0279 112.452C11.9847 112.258 11.9415 111.999 11.8766 111.674C11.7686 111.026 11.5741 110.097 11.7254 109.06C11.855 108.044 12.2656 107.158 12.6978 106.64C12.9139 106.38 13.1084 106.186 13.2596 106.078C13.3244 106.013 13.3893 105.97 13.4325 105.948C13.4757 105.926 13.4973 105.905 13.4973 105.905C13.5189 105.926 13.1516 106.143 12.741 106.683C12.3304 107.201 11.9415 108.066 11.8118 109.081C11.6822 110.097 11.855 111.005 11.9415 111.674C11.9847 111.999 12.0279 112.28 12.0711 112.452C12.0927 112.625 12.0927 112.733 12.0927 112.733Z" fill="#1A2E35"/>
  <path d="M7.66797 101.323C7.66797 101.323 7.68958 101.366 7.7328 101.431C7.77601 101.517 7.81923 101.625 7.88406 101.755C8.01371 102.036 8.20819 102.468 8.42428 102.987C8.87807 104.024 9.46151 105.45 10.0882 107.071C10.7148 108.67 11.2334 110.139 11.6008 111.198C11.7953 111.738 11.9249 112.171 12.033 112.473C12.0762 112.624 12.1194 112.732 12.141 112.819C12.1626 112.905 12.1842 112.948 12.1626 112.948C12.1626 112.948 12.141 112.905 12.1194 112.84C12.0762 112.754 12.0546 112.646 11.9897 112.495C11.8817 112.192 11.7304 111.76 11.536 111.241C11.147 110.183 10.6068 108.735 9.98012 107.114C9.35346 105.515 8.77002 104.067 8.33784 103.03C8.12176 102.511 7.94889 102.101 7.84084 101.798C7.77601 101.669 7.73279 101.539 7.71119 101.453C7.66797 101.366 7.66797 101.323 7.66797 101.323Z" fill="#1A2E35"/>
  <path d="M10.3444 109.708C9.48003 108.217 7.83776 107.201 6.13065 107.093C5.69847 107.072 5.15825 107.136 4.96377 107.525C4.76929 107.914 5.0286 108.39 5.33112 108.714C6.56283 110.054 8.65889 110.529 10.366 109.837" fill="#0CB2AC"/>
  <path d="M6.78125 108.256C6.78125 108.256 6.88929 108.256 7.06216 108.256C7.1486 108.256 7.25664 108.278 7.3863 108.3C7.51595 108.321 7.64561 108.343 7.79687 108.386C7.94813 108.429 8.121 108.451 8.29387 108.516C8.46674 108.559 8.66122 108.645 8.8557 108.732C9.24467 108.905 9.63362 109.121 10.0226 109.423C10.4115 109.726 10.7357 110.05 10.995 110.374C11.1246 110.547 11.2327 110.698 11.3407 110.871C11.4488 111.022 11.5136 111.174 11.6 111.325C11.6865 111.455 11.7297 111.606 11.7729 111.714C11.8161 111.822 11.8593 111.93 11.881 112.016C11.9242 112.189 11.9674 112.276 11.9458 112.276C11.9242 112.276 11.8161 111.908 11.5352 111.347C11.4488 111.217 11.3839 111.066 11.2759 110.914C11.1895 110.763 11.0598 110.612 10.9302 110.439C10.6709 110.115 10.3467 109.791 9.97937 109.51C9.59041 109.229 9.20145 108.991 8.8341 108.818C8.63962 108.732 8.46674 108.667 8.29387 108.602C8.121 108.537 7.94813 108.494 7.79687 108.451C7.17021 108.3 6.78125 108.278 6.78125 108.256Z" fill="#1A2E35"/>
  <path d="M104.883 40.5312C104.256 40.6825 103.932 41.4172 103.868 42.0655C103.803 42.7137 103.889 43.4052 103.608 43.9887C103.306 44.6585 102.571 45.1555 102.549 45.8902C102.528 46.344 102.809 46.7546 102.787 47.2084C102.765 47.9431 102.009 48.5049 101.988 49.2396C101.966 49.7582 102.312 50.2769 102.225 50.7955C102.16 51.206 101.836 51.5302 101.707 51.9191C101.447 52.697 101.966 53.5398 102.657 53.9936C103.435 54.4906 104.429 54.5986 105.294 54.3177C106.158 54.0368 106.893 53.3669 107.238 52.5242C107.627 51.595 107.541 50.5362 107.455 49.5421C107.195 46.4089 107.001 43.2756 106.871 40.1207" fill="#1A2E35"/>
  <path d="M103.023 51.592C103.002 51.5704 103.196 51.5272 103.304 51.2462C103.369 51.1166 103.391 50.9221 103.369 50.7276C103.369 50.5115 103.282 50.2955 103.218 50.0361C103.153 49.7768 103.045 49.4743 103.11 49.1502C103.174 48.8044 103.412 48.5451 103.628 48.2642C103.736 48.1346 103.844 47.9833 103.931 47.8104C103.996 47.6592 104.017 47.4647 103.974 47.2918C103.866 46.9461 103.52 46.6868 103.347 46.2762C103.261 46.0817 103.261 45.844 103.304 45.6495C103.347 45.4551 103.434 45.2606 103.52 45.0877C103.693 44.742 103.866 44.4178 103.952 44.0721C104.104 43.3806 104.039 42.7323 104.147 42.1921C104.233 41.6519 104.471 41.2413 104.687 41.0468C104.795 40.9388 104.903 40.874 104.968 40.8524C105.033 40.8308 105.076 40.8091 105.076 40.8091C105.076 40.8308 104.925 40.874 104.709 41.0901C104.493 41.3061 104.298 41.6951 104.212 42.2137C104.168 42.473 104.168 42.7756 104.147 43.0781C104.125 43.4022 104.125 43.748 104.039 44.0937C103.974 44.461 103.779 44.7852 103.607 45.1309C103.434 45.4767 103.304 45.8656 103.434 46.233C103.563 46.6003 103.909 46.8596 104.06 47.2702C104.125 47.4647 104.104 47.6808 104.017 47.8536C103.931 48.0265 103.823 48.1778 103.715 48.329C103.499 48.61 103.261 48.8693 103.218 49.1718C103.153 49.4743 103.239 49.7552 103.326 50.0145C103.391 50.2738 103.477 50.5115 103.477 50.7276C103.477 50.9437 103.455 51.1382 103.39 51.2679C103.326 51.4191 103.239 51.5055 103.174 51.5488C103.066 51.5704 103.023 51.592 103.023 51.592Z" fill="#375A64"/>
  <path d="M101.341 56.7144L99.3965 62.3327L91.2715 62.7649L89.9102 65.7902L98.4025 66.6545C100.088 67.346 102.033 66.5032 102.659 64.7745L104.928 58.4431L101.341 56.7144Z" fill="#C78976"/>
  <path d="M118.152 109.722C118.152 109.722 112.188 90.7927 112.058 90.166C111.95 89.6042 114.219 75.9906 114.5 72.4683L106.44 72.7708C106.44 72.7708 106.44 72.7925 106.44 72.8357L103.025 73.0302L106.115 111.732H109.832L109.465 98.8744C111.755 105.011 115.018 111.256 115.018 111.256L118.152 109.722Z" fill="#C78976"/>
  <path d="M109.594 103.497C109.594 103.389 109.551 99.1972 109.551 99.1972C109.508 99.4565 108.125 95.5669 108.168 95.3292C108.19 95.1995 109.594 103.497 109.594 103.497Z" fill="#B66955"/>
  <path d="M107.994 93.4722C107.994 93.4722 107.973 93.5587 107.973 93.7099C107.973 93.8612 107.973 94.0773 107.973 94.3582C107.973 94.4878 107.994 94.6391 108.016 94.7904C108.037 94.9416 108.059 95.1145 108.102 95.2874C108.167 95.6331 108.275 96.0221 108.405 96.411C108.664 97.189 108.967 97.8804 109.183 98.3775C109.291 98.5935 109.377 98.8096 109.442 98.9609C109.507 99.0905 109.55 99.177 109.55 99.177C109.55 99.177 109.528 99.0905 109.485 98.9609C109.442 98.8096 109.356 98.6151 109.269 98.3558C109.075 97.8588 108.794 97.1674 108.534 96.3894C108.405 96.0005 108.297 95.6331 108.232 95.2874C108.189 95.1145 108.167 94.9416 108.146 94.7904C108.124 94.6391 108.102 94.4878 108.102 94.3582C108.081 94.0989 108.059 93.8828 108.059 93.7315C108.016 93.5587 108.016 93.4722 107.994 93.4722Z" fill="#B66955"/>
  <path d="M106.028 111.919V111.573L109.831 111.4V112.826L109.594 112.848C108.556 112.913 104.3 113.085 103.586 112.869C102.83 112.653 106.028 111.919 106.028 111.919Z" fill="#375A64"/>
  <path d="M109.896 112.765C109.896 112.765 109.875 112.765 109.832 112.765C109.767 112.765 109.724 112.765 109.637 112.787C109.443 112.787 109.227 112.808 108.946 112.808C108.362 112.83 107.563 112.852 106.677 112.852C105.791 112.852 104.991 112.852 104.408 112.83C104.127 112.83 103.911 112.808 103.716 112.808C103.652 112.808 103.587 112.808 103.522 112.808C103.479 112.808 103.457 112.808 103.457 112.808C103.457 112.808 103.479 112.808 103.522 112.808C103.587 112.808 103.63 112.808 103.716 112.808C103.911 112.808 104.127 112.808 104.408 112.83C104.991 112.83 105.791 112.852 106.677 112.852C107.563 112.852 108.362 112.83 108.946 112.808C109.227 112.808 109.443 112.787 109.637 112.787C109.702 112.787 109.767 112.787 109.832 112.787C109.875 112.765 109.896 112.765 109.896 112.765Z" fill="#1A2E35"/>
  <path d="M104.797 112.87C104.775 112.87 104.775 112.698 104.667 112.546C104.559 112.373 104.43 112.287 104.43 112.287C104.43 112.265 104.603 112.352 104.711 112.525C104.819 112.698 104.819 112.892 104.797 112.87Z" fill="#1A2E35"/>
  <path d="M105.92 112.317C105.92 112.317 105.855 112.252 105.791 112.166C105.726 112.079 105.704 111.993 105.704 111.993C105.704 111.993 105.769 112.058 105.834 112.144C105.899 112.23 105.92 112.317 105.92 112.317Z" fill="#1A2E35"/>
  <path d="M106.226 112.163C106.226 112.163 106.161 112.141 106.096 112.076C106.031 112.012 105.988 111.968 105.988 111.947C105.988 111.947 106.053 111.968 106.118 112.033C106.183 112.098 106.226 112.141 106.226 112.163Z" fill="#1A2E35"/>
  <path d="M106.42 111.79C106.42 111.811 106.334 111.811 106.226 111.811C106.118 111.811 106.031 111.811 106.031 111.79C106.031 111.768 106.118 111.768 106.226 111.768C106.334 111.768 106.42 111.768 106.42 111.79Z" fill="#1A2E35"/>
  <path d="M106.485 111.528C106.485 111.55 106.399 111.593 106.269 111.593C106.139 111.593 106.031 111.571 106.031 111.571C106.031 111.549 106.139 111.571 106.247 111.55C106.377 111.55 106.485 111.528 106.485 111.528Z" fill="#1A2E35"/>
  <path d="M105.793 111.984C105.793 111.984 105.707 112.005 105.555 111.984C105.491 111.984 105.383 111.962 105.296 111.919C105.253 111.897 105.21 111.897 105.145 111.854C105.123 111.832 105.102 111.811 105.08 111.789C105.08 111.746 105.08 111.703 105.123 111.703C105.361 111.573 105.577 111.703 105.664 111.832C105.707 111.897 105.728 111.962 105.75 111.984C105.75 112.027 105.75 112.048 105.75 112.048C105.75 112.048 105.728 111.962 105.642 111.832C105.599 111.768 105.534 111.724 105.426 111.703C105.339 111.681 105.21 111.681 105.145 111.724C105.102 111.746 105.123 111.789 105.167 111.832C105.21 111.854 105.253 111.876 105.296 111.897C105.383 111.919 105.469 111.94 105.555 111.962C105.707 111.984 105.793 111.962 105.793 111.984Z" fill="#1A2E35"/>
  <path d="M105.726 111.984C105.726 111.984 105.683 111.919 105.704 111.811C105.704 111.768 105.726 111.703 105.769 111.638C105.812 111.595 105.877 111.508 105.964 111.508C106.028 111.508 106.05 111.573 106.028 111.616C106.028 111.66 106.007 111.703 105.985 111.724C105.942 111.789 105.899 111.832 105.877 111.876C105.812 111.962 105.748 111.984 105.726 111.984C105.748 111.984 105.791 111.941 105.856 111.854C105.899 111.811 105.92 111.768 105.964 111.703C106.007 111.66 106.028 111.552 105.964 111.552C105.899 111.552 105.834 111.616 105.812 111.66C105.769 111.703 105.748 111.768 105.748 111.811C105.704 111.919 105.726 111.984 105.726 111.984Z" fill="#1A2E35"/>
  <path d="M109.81 111.727C109.81 111.727 109.702 111.727 109.53 111.749C109.357 111.77 109.119 111.835 108.924 112.008C108.73 112.181 108.6 112.397 108.536 112.548C108.471 112.721 108.471 112.829 108.471 112.808C108.471 112.808 108.471 112.786 108.471 112.721C108.471 112.678 108.492 112.592 108.514 112.527C108.557 112.354 108.687 112.138 108.903 111.965C109.119 111.792 109.357 111.727 109.53 111.706C109.616 111.706 109.681 111.706 109.746 111.706C109.789 111.706 109.81 111.727 109.81 111.727Z" fill="#1A2E35"/>
  <path d="M107.997 112.464C107.997 112.486 107.759 112.507 107.435 112.507C107.132 112.507 106.873 112.464 106.873 112.464C106.873 112.443 107.111 112.464 107.435 112.464C107.737 112.464 107.997 112.443 107.997 112.464Z" fill="#1A2E35"/>
  <path d="M108.73 112.439C108.73 112.439 108.708 112.482 108.686 112.547C108.665 112.612 108.643 112.655 108.643 112.655C108.622 112.655 108.622 112.59 108.643 112.525C108.686 112.482 108.73 112.439 108.73 112.439Z" fill="#1A2E35"/>
  <path d="M109.009 112.093C109.009 112.093 108.987 112.137 108.944 112.18C108.901 112.223 108.857 112.245 108.857 112.245C108.857 112.245 108.879 112.201 108.922 112.158C108.965 112.115 109.009 112.093 109.009 112.093Z" fill="#1A2E35"/>
  <path d="M109.422 111.94C109.422 111.962 109.379 111.962 109.314 111.962C109.249 111.984 109.228 112.005 109.206 112.005C109.206 112.005 109.228 111.94 109.292 111.919C109.357 111.897 109.422 111.919 109.422 111.94Z" fill="#1A2E35"/>
  <path d="M109.7 111.86C109.7 111.881 109.679 111.881 109.658 111.901C109.637 111.922 109.596 111.922 109.596 111.901C109.596 111.881 109.616 111.881 109.637 111.86C109.658 111.86 109.679 111.86 109.7 111.86Z" fill="#1A2E35"/>
  <path d="M114.935 111.609L114.784 111.285L118.176 109.578L118.781 110.874L118.565 110.982C117.636 111.458 113.833 113.381 113.098 113.467C112.299 113.575 114.935 111.609 114.935 111.609Z" fill="#375A64"/>
  <path d="M118.803 110.786C118.803 110.786 118.782 110.807 118.738 110.829C118.695 110.851 118.63 110.894 118.565 110.915C118.393 111.002 118.198 111.11 117.96 111.218C117.442 111.477 116.729 111.823 115.908 112.19C115.108 112.558 114.373 112.882 113.833 113.098C113.574 113.206 113.379 113.292 113.206 113.357C113.142 113.379 113.077 113.4 113.034 113.422C112.99 113.444 112.969 113.444 112.969 113.444C112.969 113.444 112.99 113.422 113.034 113.422C113.077 113.4 113.142 113.379 113.206 113.357C113.379 113.292 113.595 113.184 113.833 113.076C114.373 112.839 115.108 112.536 115.908 112.169C116.707 111.801 117.442 111.456 117.96 111.218C118.198 111.11 118.414 111.002 118.587 110.915C118.652 110.894 118.695 110.851 118.76 110.829C118.782 110.786 118.803 110.786 118.803 110.786Z" fill="#1A2E35"/>
  <path d="M114.2 112.966C114.178 112.966 114.113 112.836 113.94 112.728C113.789 112.62 113.616 112.598 113.616 112.577C113.616 112.555 113.789 112.555 113.962 112.685C114.156 112.814 114.221 112.966 114.2 112.966Z" fill="#1A2E35"/>
  <path d="M114.978 111.993C114.978 111.993 114.892 111.971 114.806 111.907C114.719 111.842 114.654 111.799 114.654 111.777C114.654 111.777 114.741 111.799 114.827 111.863C114.935 111.928 115 111.993 114.978 111.993Z" fill="#1A2E35"/>
  <path d="M115.192 111.73C115.192 111.751 115.127 111.73 115.041 111.708C114.954 111.687 114.89 111.643 114.89 111.643C114.89 111.622 114.954 111.643 115.041 111.665C115.127 111.687 115.192 111.708 115.192 111.73Z" fill="#1A2E35"/>
  <path d="M115.215 111.324C115.215 111.345 115.15 111.388 115.042 111.432C114.934 111.475 114.869 111.497 114.848 111.497C114.848 111.475 114.912 111.432 115.021 111.388C115.129 111.345 115.215 111.302 115.215 111.324Z" fill="#1A2E35"/>
  <path d="M115.172 111.064C115.172 111.064 115.107 111.15 114.999 111.215C114.891 111.28 114.783 111.302 114.783 111.28C114.783 111.258 114.87 111.237 114.978 111.172C115.086 111.107 115.172 111.064 115.172 111.064Z" fill="#1A2E35"/>
  <path d="M114.739 111.76C114.739 111.76 114.653 111.803 114.523 111.868C114.458 111.89 114.372 111.911 114.264 111.933C114.22 111.933 114.156 111.954 114.112 111.933C114.091 111.933 114.048 111.911 114.026 111.89C114.004 111.868 114.004 111.825 114.026 111.781C114.177 111.565 114.458 111.609 114.588 111.673C114.653 111.717 114.696 111.76 114.717 111.781C114.739 111.825 114.761 111.846 114.761 111.846C114.761 111.846 114.696 111.76 114.566 111.695C114.501 111.673 114.415 111.652 114.328 111.652C114.242 111.673 114.134 111.717 114.069 111.781C114.048 111.825 114.069 111.868 114.134 111.868C114.177 111.868 114.242 111.868 114.285 111.868C114.372 111.868 114.458 111.846 114.545 111.825C114.653 111.781 114.717 111.738 114.739 111.76Z" fill="#1A2E35"/>
  <path d="M114.674 111.781C114.674 111.781 114.61 111.738 114.588 111.63C114.566 111.586 114.566 111.522 114.566 111.435C114.588 111.37 114.61 111.284 114.696 111.241C114.761 111.219 114.869 111.327 114.891 111.37C114.912 111.414 114.826 111.392 114.826 111.414C114.826 111.478 114.804 111.543 114.782 111.586C114.739 111.738 114.696 111.781 114.674 111.781C114.674 111.759 114.718 111.716 114.739 111.608C114.761 111.565 114.761 111.5 114.782 111.435C114.782 111.37 114.782 111.284 114.718 111.306C114.653 111.327 114.631 111.414 114.61 111.457C114.588 111.522 114.61 111.586 114.61 111.63C114.631 111.738 114.696 111.781 114.674 111.781Z" fill="#1A2E35"/>
  <path d="M118.304 109.874C118.304 109.874 118.195 109.917 118.044 110.003C117.893 110.09 117.72 110.241 117.59 110.479C117.482 110.716 117.461 110.954 117.461 111.127C117.482 111.3 117.526 111.408 117.504 111.408C117.504 111.408 117.482 111.386 117.482 111.343C117.461 111.3 117.439 111.235 117.439 111.149C117.418 110.976 117.439 110.716 117.547 110.479C117.677 110.241 117.871 110.068 118.023 109.982C118.109 109.938 118.174 109.917 118.217 109.895C118.26 109.874 118.304 109.874 118.304 109.874Z" fill="#1A2E35"/>
  <path d="M116.945 111.276C116.945 111.276 116.751 111.428 116.47 111.557C116.189 111.687 115.951 111.752 115.951 111.752C115.951 111.73 116.189 111.644 116.448 111.536C116.707 111.384 116.924 111.255 116.945 111.276Z" fill="#1A2E35"/>
  <path d="M117.612 110.981C117.633 110.981 117.612 111.046 117.612 111.089C117.612 111.154 117.612 111.197 117.612 111.197C117.59 111.197 117.568 111.154 117.568 111.089C117.568 111.025 117.59 110.96 117.612 110.981Z" fill="#1A2E35"/>
  <path d="M117.719 110.544C117.741 110.544 117.719 110.587 117.698 110.652C117.676 110.696 117.655 110.739 117.633 110.739C117.611 110.739 117.633 110.696 117.655 110.631C117.676 110.566 117.698 110.523 117.719 110.544Z" fill="#1A2E35"/>
  <path d="M118.025 110.224C118.025 110.246 117.982 110.267 117.939 110.289C117.895 110.332 117.874 110.375 117.852 110.375C117.831 110.375 117.852 110.311 117.895 110.267C117.96 110.224 118.025 110.224 118.025 110.224Z" fill="#1A2E35"/>
  <path d="M118.236 110.05C118.236 110.05 118.236 110.092 118.216 110.112C118.195 110.133 118.174 110.154 118.153 110.133C118.153 110.133 118.153 110.092 118.174 110.071C118.216 110.05 118.236 110.029 118.236 110.05Z" fill="#1A2E35"/>
  <path d="M114.008 66.0633L113.381 58.3489L116.623 58.4138C116.623 58.4138 116.774 57.2685 116.299 54.7835C115.996 53.2492 114.981 52.32 113.835 51.7582V51.7366L113.727 51.715C112.279 51.0451 110.745 50.9371 110.745 50.9371L106.769 50.9803C106.769 50.9803 103.722 50.5913 102.037 52.7738C101.389 53.6166 99.3789 59.3429 99.3789 59.3429L104.154 61.6551L103.701 58.4786C103.701 58.4786 103.787 60.7691 104.09 61.5038C104.263 61.9144 104.716 63.1677 104.716 63.1677L104.651 66.9709L114.008 66.0633Z" fill="#0CB2AC"/>
  <path d="M111.802 57.237L111.197 59.7436H116.794L116.427 55.5298L111.802 57.237Z" fill="#0CB2AC"/>
  <path d="M116.793 59.7443C116.793 59.7227 116.512 59.7011 116.058 59.6795C115.604 59.6579 114.978 59.6363 114.265 59.6363C113.573 59.6363 112.925 59.6795 112.471 59.7011C112.017 59.7443 111.736 59.7659 111.736 59.7876C111.736 59.8092 112.017 59.7876 112.471 59.7876C112.925 59.7659 113.551 59.7659 114.265 59.7443C114.956 59.7443 115.583 59.7443 116.058 59.7443C116.512 59.7659 116.793 59.7659 116.793 59.7443Z" fill="#1A2E35"/>
  <path d="M111.562 55.5113C111.54 55.5113 111.54 55.749 111.54 56.1596C111.54 56.5485 111.562 57.1103 111.583 57.6938C111.605 58.2988 111.626 58.8391 111.67 59.228C111.691 59.617 111.713 59.8763 111.735 59.8763C111.756 59.8763 111.756 59.6386 111.756 59.228C111.756 58.8391 111.735 58.2772 111.713 57.6938C111.691 57.0887 111.67 56.5485 111.626 56.1596C111.605 55.749 111.583 55.5113 111.562 55.5113Z" fill="#1A2E35"/>
  <g opacity="0.3">
    <path opacity="0.3" d="M106.485 57.692C106.485 57.692 107.717 66.8973 111.218 66.638C111.218 66.638 112.795 66.6164 113.292 65.5792V65.1686L106.485 57.692Z" fill="black"/>
  </g>
  <g opacity="0.3">
    <path opacity="0.3" d="M111.56 56.0445L110.891 60.5391L111.323 61.3387L112.036 59.7828H111.733L111.56 56.0445Z" fill="black"/>
  </g>
  <path d="M104.733 63.1504C104.733 63.1504 104.69 63.0856 104.647 62.9343C104.582 62.783 104.517 62.5885 104.431 62.3292C104.258 61.8106 104.063 61.0975 103.89 60.298C103.739 59.4985 103.653 58.7422 103.631 58.2019C103.609 57.9426 103.609 57.7049 103.609 57.5537C103.609 57.4024 103.609 57.316 103.631 57.316C103.653 57.316 103.653 57.6401 103.717 58.1803C103.761 58.7206 103.847 59.4553 104.02 60.2548C104.171 61.0543 104.366 61.7674 104.517 62.286C104.582 62.5237 104.647 62.7398 104.69 62.8911C104.711 63.0639 104.733 63.1288 104.733 63.1504Z" fill="#1A2E35"/>
  <path d="M106.138 65.7979C106.117 65.7979 106.03 65.6034 105.944 65.3441C105.857 65.0848 105.836 64.8687 105.857 64.8687C105.879 64.8687 105.965 65.0632 106.052 65.3225C106.138 65.5818 106.16 65.7979 106.138 65.7979Z" fill="#1A2E35"/>
  <path d="M106.614 65.7428C106.592 65.7428 106.484 65.4618 106.484 65.0729C106.484 64.6839 106.571 64.3814 106.592 64.403C106.614 64.403 106.592 64.7055 106.592 65.0729C106.614 65.4402 106.657 65.7428 106.614 65.7428Z" fill="#1A2E35"/>
  <path d="M104.257 61.7312C104.235 61.7528 103.133 61.2342 101.772 60.5427C100.411 59.8729 99.3301 59.2894 99.3301 59.2678C99.3517 59.2462 100.454 59.7648 101.815 60.4563C103.176 61.1262 104.279 61.7096 104.257 61.7312Z" fill="#1A2E35"/>
  <path d="M106.22 51.7244C106.242 50.6223 106.242 49.4771 106.242 49.4771C106.242 49.4771 104.837 49.1961 104.599 47.3594C104.362 45.6091 105.01 41.4818 105.01 41.4818C107.063 40.7038 109.18 41.4169 110.585 43.0592L110.239 51.9405C110.196 52.9777 109.288 53.7556 108.186 53.7124C107.084 53.6476 106.198 52.7616 106.22 51.7244Z" fill="#C78976"/>
  <path d="M104.924 44.7616C104.924 44.8913 105.01 44.9993 105.14 44.9993C105.27 44.9993 105.378 44.9129 105.378 44.7832C105.378 44.6536 105.291 44.5455 105.162 44.5455C105.032 44.5455 104.924 44.632 104.924 44.7616Z" fill="#1A2E35"/>
  <path d="M104.839 44.4492C104.86 44.4709 105.055 44.3628 105.293 44.3628C105.552 44.3628 105.725 44.4925 105.746 44.4709C105.768 44.4492 105.725 44.406 105.66 44.3412C105.574 44.2764 105.444 44.2115 105.293 44.2115C105.141 44.2115 104.99 44.2548 104.925 44.3196C104.839 44.3628 104.817 44.4276 104.839 44.4492Z" fill="#1A2E35"/>
  <path d="M107.498 44.9188C107.498 45.0484 107.584 45.1565 107.714 45.1565C107.844 45.1565 107.952 45.07 107.952 44.9404C107.952 44.8107 107.865 44.7027 107.736 44.7027C107.606 44.7027 107.498 44.8107 107.498 44.9188Z" fill="#1A2E35"/>
  <path d="M107.474 44.6025C107.496 44.6241 107.69 44.5161 107.928 44.5161C108.187 44.5161 108.36 44.6457 108.382 44.6241C108.404 44.6025 108.36 44.5593 108.296 44.4945C108.209 44.4296 108.079 44.3648 107.928 44.3648C107.777 44.3648 107.626 44.408 107.561 44.4729C107.496 44.5377 107.453 44.5809 107.474 44.6025Z" fill="#1A2E35"/>
  <path d="M106.503 46.4606C106.503 46.439 106.352 46.4174 106.092 46.3742C106.027 46.3742 105.963 46.3526 105.963 46.3094C105.941 46.2661 105.984 46.2013 106.006 46.1149C106.071 45.9636 106.135 45.7907 106.2 45.6179C106.481 44.9264 106.697 44.3429 106.654 44.3429C106.632 44.3213 106.373 44.8832 106.092 45.5747C106.027 45.7475 105.963 45.8988 105.898 46.0717C105.876 46.1365 105.833 46.2229 105.855 46.331C105.876 46.3742 105.919 46.4174 105.963 46.439C106.006 46.4606 106.049 46.4606 106.071 46.4606C106.352 46.4606 106.503 46.4822 106.503 46.4606Z" fill="#1A2E35"/>
  <path d="M106.246 49.4746C106.246 49.4746 107.478 49.5827 108.731 48.8912C108.731 48.8912 108.104 50.1445 106.268 49.9284L106.246 49.4746Z" fill="#B66955"/>
  <path d="M108.278 43.8735C108.235 43.9599 108.04 43.9167 107.824 43.8735C107.608 43.8302 107.414 43.787 107.392 43.7006C107.371 43.6141 107.587 43.4845 107.889 43.5493C108.17 43.6141 108.343 43.8086 108.278 43.8735Z" fill="#1A2E35"/>
  <path d="M105.772 43.5129C105.75 43.5993 105.556 43.6425 105.318 43.6425C105.08 43.6425 104.864 43.6425 104.842 43.5561C104.821 43.4696 105.015 43.3184 105.296 43.3184C105.577 43.2968 105.793 43.4264 105.772 43.5129Z" fill="#1A2E35"/>
  <path d="M106.504 47.076C106.461 47.0544 106.396 47.0976 106.374 47.1409C106.353 47.2057 106.353 47.2705 106.417 47.3137C106.461 47.3569 106.547 47.3569 106.59 47.3137C106.634 47.2705 106.655 47.1841 106.634 47.1409C106.612 47.076 106.526 47.0544 106.461 47.076" fill="#B66955"/>
  <path d="M106.568 47.097C106.59 47.097 106.525 47.0322 106.417 47.0538C106.374 47.0754 106.309 47.1186 106.287 47.1834C106.265 47.2483 106.287 47.3563 106.374 47.4211C106.46 47.486 106.546 47.4644 106.611 47.4211C106.676 47.3779 106.698 47.2915 106.698 47.2483C106.676 47.1402 106.59 47.1186 106.59 47.1402C106.59 47.1618 106.611 47.1834 106.611 47.2699C106.611 47.3131 106.59 47.3347 106.568 47.3563C106.546 47.3779 106.482 47.3779 106.46 47.3563C106.438 47.3347 106.417 47.2915 106.417 47.2483C106.417 47.2051 106.438 47.1834 106.482 47.1618C106.503 47.097 106.568 47.1186 106.568 47.097Z" fill="#1A2E35"/>
  <path d="M109.746 45.2191C109.53 45.7161 108.99 46.1267 109.076 46.6669C109.12 47.0126 109.357 47.3584 109.314 47.7041C109.249 48.1579 108.796 48.4604 108.731 48.8926C108.644 49.4328 109.185 49.865 109.379 50.362C109.682 51.0967 109.293 51.9394 109.293 52.7174C109.271 53.9491 110.33 55.0944 111.54 55.1808C112.037 55.224 112.599 55.0727 112.836 54.6406C113.053 54.2948 113.009 53.841 113.139 53.4521C113.333 52.8686 113.874 52.4581 114.003 51.853C114.219 50.7726 112.901 49.865 112.988 48.7629C113.031 48.2875 113.312 47.877 113.441 47.4232C113.614 46.8181 113.463 46.1483 113.053 45.6729C112.728 45.2839 112.253 45.0246 111.972 44.614C111.648 44.1386 111.648 43.5336 111.54 42.9718C111.259 41.6104 110.222 40.4219 108.925 39.9465C107.607 39.4711 106.073 39.7088 104.971 40.5516C104.971 40.5516 104.647 41.9777 106.116 42.2154C107.585 42.4531 108.255 42.1722 108.428 42.7557C108.428 42.7557 108.255 43.4472 108.86 44.0954C109.444 44.7653 110.006 44.6356 109.746 45.2191Z" fill="#1A2E35"/>
  <path d="M112.08 55.0986C112.08 55.0986 112.037 55.0987 111.951 55.077C111.864 55.0554 111.734 55.0338 111.583 54.969C111.281 54.861 110.827 54.6016 110.46 54.1262C110.265 53.8886 110.092 53.6076 109.984 53.2619C109.855 52.9378 109.79 52.5488 109.79 52.1598C109.79 51.7709 109.833 51.3387 109.941 50.9281C110.006 50.712 110.071 50.5176 110.157 50.3015C110.243 50.0854 110.33 49.8909 110.395 49.6748C110.46 49.4587 110.438 49.2426 110.395 49.0482C110.33 48.8321 110.243 48.6376 110.157 48.4647C110.071 48.2702 109.963 48.0758 109.898 47.8813C109.833 47.6868 109.811 47.4707 109.855 47.2546C109.941 46.8441 110.179 46.5415 110.33 46.239C110.481 45.9365 110.524 45.6123 110.524 45.3098C110.503 44.7264 110.243 44.2942 110.049 44.0349C109.833 43.7756 109.682 43.6892 109.682 43.6675C109.682 43.6675 109.855 43.754 110.092 43.9917C110.308 44.2294 110.589 44.6832 110.611 45.2882C110.632 45.5907 110.568 45.9365 110.416 46.2606C110.265 46.5847 110.027 46.8873 109.963 47.2546C109.876 47.622 110.071 48.0109 110.265 48.3999C110.352 48.5944 110.46 48.7889 110.524 49.0049C110.589 49.221 110.589 49.4803 110.524 49.6964C110.46 49.9125 110.352 50.1286 110.287 50.3231C110.2 50.5176 110.135 50.7337 110.092 50.9281C109.984 51.3387 109.919 51.7493 109.941 52.1382C109.941 52.9162 110.2 53.6076 110.568 54.0614C110.935 54.5368 111.346 54.7745 111.648 54.9042C111.907 55.077 112.102 55.0986 112.08 55.0986Z" fill="#375A64"/>
  <path d="M111.863 44.2052C111.863 44.2052 111.755 44.2268 111.539 44.2484C111.323 44.27 111.021 44.2916 110.653 44.2268C110.286 44.162 109.832 43.9891 109.53 43.5353C109.378 43.3192 109.335 43.0599 109.227 42.8006C109.141 42.5629 108.968 42.3468 108.73 42.1956C108.255 41.8931 107.693 41.8498 107.217 41.8066C106.72 41.7418 106.267 41.6554 105.964 41.4177C105.64 41.2016 105.489 40.899 105.445 40.7046C105.424 40.5965 105.424 40.5101 105.424 40.4669C105.424 40.402 105.445 40.3804 105.445 40.3804C105.467 40.3804 105.424 40.4885 105.489 40.7046C105.532 40.899 105.705 41.1584 106.007 41.3744C106.31 41.5905 106.742 41.677 107.239 41.7202C107.714 41.785 108.298 41.8066 108.795 42.1308C109.054 42.282 109.249 42.5413 109.335 42.8006C109.421 43.0599 109.486 43.3192 109.616 43.5137C109.875 43.9243 110.307 44.0972 110.675 44.1836C111.042 44.2484 111.345 44.2484 111.539 44.2484C111.755 44.1836 111.863 44.1836 111.863 44.2052Z" fill="#375A64"/>
  <path d="M111.346 42.4301C111.346 42.4301 111.259 42.4734 111.086 42.4734C110.913 42.4734 110.676 42.4517 110.395 42.3221C110.265 42.2573 110.114 42.1708 109.984 42.0412C109.855 41.9115 109.746 41.7603 109.638 41.5874C109.444 41.2633 109.249 40.8527 108.86 40.6798C108.472 40.5069 108.018 40.5502 107.65 40.5718C107.261 40.615 106.916 40.615 106.613 40.5718C106.311 40.5286 106.095 40.3989 105.965 40.2909C105.9 40.226 105.857 40.1828 105.835 40.1396C105.814 40.0964 105.792 40.0748 105.814 40.0748C105.814 40.0748 105.878 40.1396 106.008 40.2476C106.138 40.3557 106.354 40.4421 106.635 40.4853C106.916 40.5286 107.261 40.5069 107.65 40.4637C108.039 40.4421 108.472 40.3773 108.925 40.5718C109.141 40.6582 109.314 40.8311 109.444 41.0039C109.574 41.1768 109.66 41.3713 109.768 41.5226C109.855 41.6954 109.963 41.8467 110.071 41.9547C110.179 42.0628 110.308 42.1708 110.438 42.2357C110.697 42.3653 110.935 42.4085 111.086 42.4085C111.237 42.4301 111.346 42.4301 111.346 42.4301Z" fill="#375A64"/>
  <path d="M112.73 54.6441C112.708 54.6441 112.794 54.4928 112.859 54.2335C112.946 53.9742 113.01 53.5636 113.01 53.0666C112.989 52.5696 112.881 51.9862 112.557 51.4243C112.405 51.1434 112.168 50.8841 111.973 50.5816C111.887 50.4303 111.8 50.2575 111.757 50.063C111.714 49.8685 111.736 49.674 111.8 49.4795C111.93 49.1122 112.146 48.788 112.189 48.4423C112.254 48.0966 112.081 47.794 111.908 47.5131C111.822 47.3619 111.736 47.2322 111.671 47.0809C111.606 46.9297 111.563 46.7784 111.541 46.6272C111.498 46.3246 111.541 46.0437 111.563 45.806C111.627 45.309 111.584 44.8984 111.455 44.6607C111.347 44.4014 111.195 44.3366 111.195 44.315C111.195 44.315 111.195 44.315 111.217 44.3366C111.239 44.3366 111.26 44.3582 111.282 44.3798C111.347 44.423 111.411 44.5095 111.476 44.6391C111.606 44.8984 111.671 45.309 111.627 45.806C111.606 46.0653 111.584 46.3246 111.606 46.6055C111.627 46.8865 111.779 47.1674 111.952 47.4483C112.038 47.5996 112.125 47.7292 112.189 47.9021C112.254 48.075 112.276 48.2694 112.254 48.4423C112.211 48.8097 111.973 49.1338 111.865 49.5011C111.8 49.674 111.779 49.8469 111.822 50.0198C111.865 50.1926 111.93 50.3439 112.016 50.4952C112.211 50.7977 112.449 51.057 112.6 51.3379C112.924 51.9213 113.054 52.5264 113.054 53.045C113.054 53.542 112.967 53.9526 112.881 54.2119C112.838 54.3415 112.794 54.4496 112.751 54.5144C112.751 54.6008 112.73 54.6441 112.73 54.6441Z" fill="#375A64"/>
  <path d="M103.933 94.9015C103.933 94.9015 102.485 81.115 102.399 76.0153C102.312 70.9156 104.689 65.8807 104.689 65.8807L114.003 65.4918C114.003 65.4918 115.84 70.6563 115.883 72.8388C115.948 77.0525 114.759 81.223 114.889 84.5724L115.191 94.9015" fill="#1A2E35"/>
  <path d="M115.517 77.939C115.517 77.939 115.473 77.9822 115.365 78.0471C115.344 78.0687 115.3 78.0903 115.279 78.1119C115.257 78.1335 115.214 78.1767 115.192 78.1983C115.128 78.2632 115.041 78.328 114.976 78.436C114.674 78.8034 114.458 79.4516 114.242 80.2728C114.134 80.6834 114.004 81.1371 113.766 81.5909C113.701 81.699 113.637 81.807 113.55 81.9151C113.507 81.9583 113.464 82.0231 113.421 82.0663L113.269 82.2176C113.075 82.4121 112.837 82.5633 112.578 82.6714C112.059 82.9091 111.476 83.0171 110.935 83.2764C110.395 83.5357 109.985 84.0543 109.747 84.6378C109.488 85.2212 109.336 85.8479 109.099 86.4097C108.883 86.9715 108.602 87.5334 108.126 87.8791C107.673 88.2465 107.089 88.3329 106.592 88.3545C106.095 88.3761 105.62 88.3761 105.209 88.441C104.799 88.5058 104.431 88.6354 104.172 88.8299C103.913 89.0244 103.761 89.2837 103.697 89.5214C103.632 89.7375 103.632 89.932 103.653 90.0616C103.675 90.1913 103.718 90.2345 103.697 90.2345C103.697 90.2345 103.653 90.1697 103.632 90.0616C103.588 89.932 103.588 89.7375 103.653 89.5214C103.718 89.2837 103.869 89.0244 104.15 88.8083C104.41 88.5922 104.799 88.4409 105.209 88.3761C105.641 88.3113 106.095 88.3113 106.592 88.2897C107.089 88.2465 107.629 88.16 108.062 87.8143C108.494 87.4902 108.775 86.9499 108.991 86.3881C109.207 85.8263 109.358 85.1996 109.639 84.6162C109.898 84.0111 110.33 83.4709 110.892 83.2116C111.454 82.9307 112.038 82.8226 112.556 82.6066C112.815 82.4985 113.053 82.3689 113.226 82.1744L113.356 82.0447C113.399 82.0015 113.442 81.9367 113.464 81.8935C113.55 81.807 113.593 81.6774 113.658 81.5693C113.896 81.1371 114.026 80.6834 114.134 80.2728C114.35 79.4516 114.587 78.7818 114.912 78.4144C114.976 78.3064 115.063 78.2416 115.128 78.1767C115.171 78.1551 115.192 78.1119 115.214 78.0903C115.236 78.0687 115.279 78.0471 115.3 78.0255C115.452 77.9606 115.495 77.939 115.517 77.939Z" fill="#EEFAF9"/>
  <path d="M115.56 71.5562C115.56 71.5562 115.56 71.621 115.582 71.7507C115.582 71.8803 115.56 72.0532 115.517 72.2693C115.409 72.7231 115.085 73.3281 114.458 73.89C114.156 74.1709 113.788 74.4518 113.378 74.6895C112.967 74.9272 112.492 75.1649 112.038 75.4458C111.563 75.7051 111.087 76.0076 110.655 76.4182C110.223 76.8072 109.899 77.3258 109.618 77.8876C109.315 78.4278 109.056 78.9897 108.71 79.4867C108.537 79.7244 108.343 79.9405 108.127 80.1349C107.911 80.3294 107.673 80.4807 107.414 80.6103C106.917 80.8696 106.42 81.0209 105.966 81.1722C105.512 81.3234 105.08 81.4315 104.691 81.6044C104.324 81.7556 103.978 81.9285 103.718 82.123C103.459 82.3174 103.243 82.5119 103.113 82.6848C102.833 83.0305 102.768 83.2898 102.746 83.2898C102.746 83.2898 102.768 83.225 102.811 83.117C102.854 83.0089 102.941 82.8361 103.092 82.6632C103.221 82.4687 103.438 82.2742 103.697 82.0797C103.956 81.8853 104.302 81.6908 104.669 81.5395C105.058 81.3666 105.49 81.237 105.944 81.1073C106.398 80.9561 106.895 80.8048 107.37 80.5455C107.608 80.4159 107.846 80.2646 108.062 80.0917C108.278 79.8972 108.472 79.7028 108.624 79.4651C108.969 78.9897 109.229 78.4278 109.51 77.8876C109.812 77.3258 110.136 76.8072 110.569 76.3966C111.001 75.986 111.498 75.6835 111.973 75.4242C112.448 75.1649 112.902 74.9272 113.334 74.6895C113.745 74.4518 114.112 74.1925 114.415 73.9116C115.02 73.3714 115.366 72.7663 115.474 72.3341C115.582 71.8155 115.539 71.5562 115.56 71.5562Z" fill="#EEFAF9"/>
  <path d="M102.444 76.7308C102.444 76.7308 102.444 76.7092 102.422 76.6876C102.422 76.666 102.401 76.6228 102.379 76.558C102.357 76.4499 102.336 76.2554 102.401 76.0393C102.53 75.6072 103.006 75.0453 103.762 74.786C104.151 74.6564 104.583 74.5699 105.037 74.4619C105.491 74.3322 105.966 74.181 106.333 73.792C106.506 73.5975 106.658 73.3815 106.787 73.1438C106.917 72.9061 107.003 72.6468 107.111 72.3658C107.306 71.8256 107.457 71.2422 107.803 70.702C108.127 70.1617 108.667 69.7944 109.207 69.5999C109.748 69.4054 110.31 69.319 110.828 69.1893C111.347 69.0813 111.822 68.93 112.233 68.7139C112.643 68.4762 112.967 68.1737 113.183 67.8496C113.659 67.2013 113.767 66.5314 113.789 66.0993C113.789 65.6455 113.724 65.4078 113.745 65.4078C113.745 65.4078 113.832 65.6455 113.832 66.0993C113.832 66.553 113.724 67.2229 113.248 67.8928C113.011 68.2169 112.686 68.5411 112.276 68.7788C111.865 69.0165 111.368 69.1677 110.85 69.2758C110.331 69.4054 109.791 69.4919 109.251 69.6863C108.71 69.8808 108.213 70.2266 107.889 70.7452C107.565 71.2638 107.414 71.8472 107.219 72.3874C107.111 72.6684 107.025 72.9277 106.895 73.187C106.766 73.4463 106.593 73.6624 106.42 73.8569C106.031 74.2458 105.534 74.4187 105.08 74.5267C104.626 74.6348 104.194 74.7212 103.805 74.8509C103.049 75.1102 102.574 75.6288 102.444 76.0393C102.379 76.2554 102.379 76.4283 102.401 76.5364C102.422 76.6876 102.444 76.7308 102.444 76.7308Z" fill="#EEFAF9"/>
  <path d="M114.758 88.3931C114.758 88.3931 114.758 88.4363 114.779 88.5228C114.779 88.6092 114.779 88.7389 114.736 88.9117C114.65 89.2359 114.412 89.6897 113.915 90.0786C113.677 90.2731 113.396 90.446 113.051 90.5972C112.727 90.7485 112.359 90.8565 111.97 90.9646C111.581 91.0726 111.192 91.2023 110.803 91.3968C110.414 91.5696 110.047 91.8289 109.745 92.1747C109.42 92.4988 109.161 92.8662 108.859 93.1903C108.556 93.5144 108.21 93.7737 107.865 93.9682C107.151 94.3572 106.417 94.4868 105.812 94.5084C105.207 94.5084 104.71 94.3788 104.407 94.2708C104.256 94.2059 104.126 94.1627 104.04 94.1195C103.953 94.0763 103.91 94.0547 103.91 94.0547C103.91 94.0547 103.953 94.0763 104.04 94.0979C104.126 94.1411 104.234 94.1843 104.407 94.2275C104.731 94.3356 105.207 94.4436 105.812 94.422C106.417 94.4004 107.13 94.2707 107.821 93.8818C108.167 93.6873 108.491 93.428 108.794 93.1255C109.096 92.8013 109.356 92.4556 109.68 92.1099C110.004 91.7641 110.371 91.4832 110.782 91.3103C111.171 91.1158 111.581 91.0078 111.97 90.8782C112.359 90.7701 112.705 90.6621 113.051 90.5108C113.375 90.3811 113.656 90.2083 113.893 90.0354C114.369 89.6681 114.628 89.2359 114.715 88.9117C114.779 88.5876 114.736 88.3931 114.758 88.3931Z" fill="#EEFAF9"/>
  <path d="M113.701 59.7631L111.908 59.8063C111.8 60.4114 111.497 60.8219 111.497 60.8219C109.984 58.2072 108.818 54.7066 108.537 53.302C108.58 53.1508 108.623 52.9995 108.688 52.8266C108.753 52.6322 108.688 52.2432 108.666 52.0271C108.623 51.7246 108.537 51.2924 108.493 51.0979C108.407 50.4929 108.321 50.4064 108.104 50.4713C107.824 50.5577 108.213 52.1351 107.996 52.1784C107.867 52.2 107.716 51.6598 107.672 51.206C107.629 50.7522 107.435 49.3908 107.283 49.3044C107.067 49.1747 106.873 49.3908 106.938 49.823C107.002 50.2768 107.067 51.5949 106.83 51.6165C106.592 51.6381 106.397 49.3692 106.397 49.3692C106.397 49.3692 106.441 48.8722 106.16 48.8938C105.663 48.9154 106.052 51.2924 106.095 51.5301C106.116 51.6814 105.879 51.7246 105.857 51.5517C105.836 51.3788 105.706 49.2828 105.209 49.3044C104.82 49.326 105.511 51.2708 105.295 51.7246C105.079 52.1784 104.928 50.1903 104.561 50.212C104.431 50.212 104.323 50.2552 104.582 51.3788C104.712 51.9839 105.101 53.1075 105.447 54.0151C106.03 57.1268 108.558 67.1317 112.556 65.295C114.782 64.2794 115.689 59.7415 115.689 59.7415L113.701 59.7631Z" fill="#C78976"/>
  <path d="M106.03 51.7095C106.03 51.7095 106.052 51.7095 106.074 51.7095C106.095 51.7095 106.16 51.6663 106.16 51.5799C106.16 51.4502 106.138 51.2557 106.095 50.9964C106.074 50.7371 105.987 50.4346 105.987 50.0672C105.987 49.8944 105.987 49.6999 106.009 49.4838C106.009 49.3757 106.009 49.2677 106.03 49.1813C106.052 49.0732 106.117 48.9652 106.182 48.9868C106.268 48.9868 106.311 49.0516 106.333 49.138C106.354 49.2245 106.376 49.3325 106.354 49.419C106.398 49.9808 106.462 50.5858 106.592 51.2125C106.614 51.2989 106.635 51.3638 106.657 51.4502C106.679 51.4934 106.679 51.5366 106.7 51.5799C106.722 51.6015 106.722 51.6231 106.743 51.6447C106.765 51.6663 106.787 51.6879 106.83 51.7095C106.916 51.7095 106.938 51.6447 106.959 51.6015C106.981 51.5582 106.981 51.515 107.003 51.4718C107.024 51.3854 107.024 51.2989 107.046 51.2125C107.068 50.8668 107.068 50.4994 107.024 50.1321C107.024 49.9376 106.959 49.7647 107.003 49.5918C107.024 49.5054 107.046 49.419 107.111 49.3974C107.132 49.3757 107.176 49.3757 107.197 49.3757C107.219 49.3757 107.24 49.3974 107.24 49.3974C107.262 49.419 107.262 49.3974 107.262 49.419C107.327 49.5702 107.37 49.7647 107.413 49.9592C107.456 50.1537 107.478 50.3481 107.521 50.5426C107.543 50.7371 107.586 50.9316 107.608 51.1477C107.629 51.3422 107.651 51.5582 107.716 51.7527C107.737 51.8608 107.781 51.9472 107.824 52.0552C107.845 52.0985 107.867 52.1633 107.91 52.2065C107.932 52.2281 107.975 52.2713 108.04 52.2497C108.105 52.2281 108.126 52.1849 108.126 52.1633C108.17 52.0336 108.148 51.9256 108.148 51.8176C108.148 51.7095 108.126 51.6015 108.126 51.4934C108.105 51.3205 108.083 51.1261 108.083 50.9532C108.083 50.8668 108.083 50.7803 108.083 50.6939C108.083 50.6507 108.105 50.6075 108.105 50.5858C108.105 50.5642 108.126 50.5642 108.126 50.5642H108.148C108.299 50.4994 108.342 50.6939 108.386 50.8668C108.429 51.0396 108.45 51.2125 108.472 51.3854C108.537 51.7311 108.602 52.0553 108.645 52.3794C108.667 52.5306 108.667 52.7035 108.623 52.8548C108.58 53.006 108.515 53.1573 108.472 53.3086V53.3302V53.3518C108.731 54.5187 109.099 55.5559 109.444 56.4851C109.79 57.4143 110.136 58.2138 110.438 58.8621C110.741 59.5103 111 60.0073 111.195 60.3531C111.281 60.5259 111.368 60.634 111.411 60.742C111.454 60.8285 111.497 60.8717 111.497 60.8717C111.497 60.8717 111.476 60.8285 111.433 60.742C111.389 60.634 111.303 60.5043 111.216 60.3531C111.044 60.0073 110.784 59.4887 110.482 58.8404C110.179 58.1922 109.855 57.3926 109.531 56.4635C109.207 55.5343 108.839 54.4971 108.58 53.3518V53.3734C108.623 53.2221 108.688 53.0709 108.731 52.9196C108.796 52.7467 108.775 52.5739 108.753 52.401C108.71 52.0552 108.645 51.7311 108.58 51.3854C108.537 51.2125 108.537 51.0396 108.494 50.8668C108.472 50.7803 108.45 50.6939 108.407 50.6075C108.386 50.5642 108.342 50.521 108.278 50.4778C108.213 50.4562 108.148 50.4562 108.105 50.4778H108.062C108.04 50.4778 108.018 50.4994 108.018 50.4994C107.997 50.521 107.975 50.5426 107.953 50.5858C107.932 50.6291 107.932 50.6939 107.91 50.7371C107.91 50.8235 107.91 50.9316 107.91 51.018C107.91 51.1909 107.932 51.3854 107.953 51.5582C107.953 51.6663 107.975 51.7743 107.975 51.8824C107.975 51.9904 107.975 52.0985 107.953 52.1633C107.953 52.1849 107.932 52.1849 107.953 52.1849C107.953 52.1849 107.953 52.2065 107.953 52.1849C107.953 52.1849 107.953 52.1849 107.932 52.1633C107.91 52.1417 107.889 52.0985 107.867 52.0552C107.824 51.9688 107.802 51.8608 107.781 51.7743C107.737 51.5799 107.694 51.3854 107.673 51.1693C107.651 50.9748 107.629 50.7587 107.586 50.5642C107.565 50.3698 107.521 50.1753 107.478 49.9808C107.435 49.7863 107.413 49.5918 107.305 49.3974C107.305 49.3757 107.262 49.3325 107.24 49.3109C107.219 49.2893 107.197 49.2893 107.154 49.2677C107.089 49.2461 107.024 49.2677 106.981 49.2893C106.873 49.3541 106.851 49.4622 106.83 49.5702C106.808 49.6783 106.808 49.7647 106.83 49.8727C106.851 49.9592 106.851 50.0456 106.851 50.1537C106.873 50.521 106.895 50.8668 106.873 51.2125C106.873 51.2989 106.851 51.3854 106.851 51.4718C106.851 51.515 106.83 51.5582 106.808 51.5799C106.808 51.6015 106.787 51.6015 106.787 51.6231C106.787 51.6447 106.765 51.6231 106.765 51.6447C106.787 51.6231 106.765 51.6447 106.765 51.6231C106.765 51.6231 106.743 51.6015 106.743 51.5799C106.722 51.5366 106.722 51.515 106.7 51.4718C106.679 51.3854 106.657 51.3205 106.635 51.2341C106.506 50.6075 106.441 50.0024 106.398 49.4406C106.398 49.3325 106.398 49.2245 106.354 49.1164C106.333 49.0732 106.311 49.0084 106.268 48.9652C106.225 48.922 106.16 48.9003 106.117 48.9003H106.138C106.052 48.8787 105.987 48.9436 105.944 48.9868C105.901 49.03 105.901 49.0948 105.879 49.1597C105.857 49.2677 105.857 49.3757 105.857 49.4838C105.857 49.6999 105.857 49.8944 105.857 50.0672C105.857 50.4346 105.944 50.7371 105.987 50.9964C106.03 51.2557 106.052 51.4502 106.074 51.5799C106.095 51.6447 106.03 51.6879 106.009 51.6879C106.03 51.7095 106.03 51.7095 106.03 51.7095Z" fill="#B66955"/>
  <path d="M91.9412 62.725C91.9412 62.725 91.3361 62.7034 90.6879 62.8763C89.5642 63.1788 87.641 64.3457 87.5762 65.7719H88.9808C88.9808 65.7719 88.2028 67.4358 88.4189 67.2845C89.024 66.874 90.2125 65.6855 90.2125 65.6855L91.9412 62.725Z" fill="#C78976"/>
  <path d="M111.041 37.6076C111.019 37.6076 110.89 36.4623 110.76 35.0145C110.63 33.5883 110.565 32.4214 110.587 32.4214C110.609 32.4214 110.738 33.5667 110.868 35.0145C110.976 36.4623 111.063 37.6076 111.041 37.6076Z" fill="#1A2E35"/>
  <path d="M117.178 32.5145C117.199 32.5361 116.248 33.8974 115.06 35.5829C113.871 37.2684 112.877 38.6082 112.856 38.5866C112.834 38.565 113.785 37.2036 114.973 35.5181C116.162 33.8326 117.134 32.4929 117.178 32.5145Z" fill="#1A2E35"/>
  <path d="M119.728 38.7365C119.728 38.7581 118.626 39.0175 117.264 39.2984C115.903 39.5793 114.779 39.7738 114.779 39.7522C114.779 39.7305 115.881 39.4712 117.243 39.1903C118.604 38.9094 119.706 38.6933 119.728 38.7365Z" fill="#1A2E35"/>
  <path d="M46.2373 68.4102L38.5878 107.695L37.5938 112.838L88.5908 112.6C90.8813 112.579 92.9125 110.548 93.6472 107.544L102.701 70.463C103.263 68.1725 102.031 65.7955 100.303 65.7955L48.6791 65.8603C47.5338 65.8171 46.5182 66.8759 46.2373 68.4102Z" fill="#0CB2AC"/>
  <g opacity="0.5">
    <path opacity="0.5" d="M46.2373 68.4102L38.5878 107.695L37.5938 112.838L88.5908 112.6C90.8813 112.579 92.9125 110.548 93.6472 107.544L102.701 70.463C103.263 68.1725 102.031 65.7955 100.303 65.7955L48.6791 65.8603C47.5338 65.8171 46.5182 66.8759 46.2373 68.4102Z" fill="black"/>
  </g>
  <path d="M83.7067 105.041L78.3045 61.5205C78.0884 59.7269 76.6622 58.4088 74.9767 58.4088L63.1351 58.452C62.2491 58.452 61.428 58.8194 60.8013 59.4892L55.183 65.4749L22.251 65.6478C20.2414 65.6478 18.6855 67.571 18.9665 69.7102L23.9797 109.946C24.1958 111.718 25.622 113.058 27.2859 113.058L84.6791 112.95C91.0754 113.079 91.6804 111.199 91.6804 111.199C84.355 112.777 83.7067 105.041 83.7067 105.041Z" fill="#0CB2AC"/>
  <g opacity="0.5">
    <path opacity="0.5" d="M58.9427 96.3308L57.0195 98.4053L42.1094 85.0078L44.0326 82.9117L58.9427 96.3308Z" fill="white"/>
    <path opacity="0.5" d="M56.1988 82.4566L58.3381 84.3798L44.8541 98.8794L42.7148 96.9562L56.1988 82.4566Z" fill="white"/>
  </g>
  <path d="M91.8979 40.1669C91.7683 40.1021 91.6602 39.9724 91.6602 39.8211L91.5738 37.8115C91.5738 37.6819 91.617 37.5738 91.7251 37.4874C91.8331 37.401 91.9411 37.3793 92.0708 37.401C92.3949 37.4874 92.7407 37.401 93.0432 37.2065C93.3241 37.0336 93.497 36.7527 93.5402 36.4718C93.5834 36.1909 93.497 35.8667 93.3025 35.6074C93.0864 35.3265 92.7623 35.132 92.4598 35.0888C91.8115 35.024 91.0984 35.521 90.9255 36.1692C90.8607 36.3853 90.6446 36.515 90.4285 36.4502C90.2124 36.3853 90.0828 36.1692 90.1476 35.9532C90.4285 34.9159 91.509 34.1596 92.5462 34.2677C93.0864 34.3325 93.605 34.635 93.9508 35.0888C94.2749 35.521 94.4262 36.0612 94.3397 36.5798C94.2533 37.0768 93.9508 37.5522 93.497 37.8547C93.1729 38.0708 92.7839 38.2005 92.3949 38.2221L92.4598 39.7779C92.4598 39.994 92.2869 40.1885 92.0708 40.1885C92.006 40.1885 91.9627 40.1885 91.8979 40.1669Z" fill="#0CB2AC"/>
  <path d="M92.5019 40.9857C92.5235 41.1586 92.3722 41.3314 92.1994 41.3314C92.0265 41.353 91.8536 41.2018 91.8536 41.0289C91.832 40.856 91.9833 40.6832 92.1562 40.6832C92.329 40.6832 92.4803 40.7912 92.5019 40.9857Z" fill="#0CB2AC"/>
  <path d="M84.9639 37.3316C84.9639 37.3316 84.9639 37.2884 84.9855 37.2019C84.9855 37.1155 85.0071 36.9859 85.0287 36.813C85.0287 36.6401 85.0719 36.4456 85.1367 36.1863C85.1583 36.0567 85.18 35.927 85.2232 35.7974C85.2664 35.6677 85.3096 35.5164 85.3528 35.3652C85.5689 34.7601 85.893 34.0254 86.4333 33.3123C86.9735 32.5992 87.7298 31.8862 88.7022 31.3459C89.1776 31.065 89.7394 30.8705 90.3013 30.6761C90.8847 30.5464 91.5114 30.4167 92.138 30.4384C92.4622 30.4167 92.7863 30.46 93.1104 30.5032C93.2833 30.5248 93.4346 30.568 93.6074 30.5896C93.7803 30.6112 93.9316 30.6544 94.1044 30.7193C94.7743 30.8921 95.4226 31.1947 96.0276 31.6052C97.2593 32.3832 98.3182 33.6581 98.88 35.1923C99.1609 35.9702 99.3122 36.813 99.3122 37.6557C99.3338 38.5201 99.1609 39.3844 98.8584 40.184L98.7503 40.4217L98.7287 40.4649L98.7503 40.4865C99.2906 41.7398 99.8308 42.9499 100.349 44.1384L100.436 44.0304C99.3122 43.5982 98.2317 43.1876 97.1945 42.777L97.1513 42.7554L97.1297 42.777C96.2221 43.6414 95.1633 44.2248 94.0828 44.549C93.0024 44.8515 91.9003 44.8731 90.9063 44.7002C89.9123 44.5274 89.0047 44.1384 88.2484 43.6414C87.4921 43.1444 86.8871 42.5609 86.4333 41.9343C85.9795 41.3292 85.677 40.681 85.4393 40.1191C85.2448 39.5357 85.1151 39.0387 85.0503 38.6065C85.0287 38.3904 85.0071 38.2176 84.9855 38.0447C84.9855 37.8934 84.9855 37.7422 84.9855 37.6341C84.9855 37.5261 84.9855 37.4396 84.9855 37.3748C84.9639 37.3532 84.9639 37.3316 84.9639 37.3316C84.9639 37.3316 84.9639 37.3532 84.9639 37.418C84.9639 37.4829 84.9639 37.5693 84.9639 37.6773C84.9639 37.7854 84.9639 37.9366 84.9639 38.0879C84.9855 38.2608 85.0071 38.4337 85.0287 38.6497C85.0719 39.0819 85.2016 39.6005 85.396 40.184C85.6121 40.7458 85.9147 41.3941 86.39 42.0207C86.8654 42.6474 87.4705 43.2524 88.2268 43.7494C88.9831 44.2464 89.8907 44.657 90.9063 44.8299C91.9219 45.0244 93.024 45.0028 94.1477 44.7002C95.2497 44.3977 96.3518 43.7927 97.2593 42.9067L97.1945 42.9283C98.2317 43.3389 99.3122 43.7494 100.436 44.1816L100.609 44.2464L100.544 44.0736C100.025 42.8851 99.5067 41.6534 98.9664 40.4217V40.4865L99.0745 40.2272C99.377 39.3844 99.5499 38.4985 99.5283 37.6341C99.5283 36.7698 99.377 35.9054 99.0961 35.1059C98.5126 33.5284 97.4322 32.2535 96.1789 31.454C95.5522 31.065 94.8824 30.7409 94.2125 30.568C94.0396 30.5032 93.8667 30.4816 93.7155 30.4384C93.5426 30.4167 93.3697 30.3735 93.2185 30.3519C92.8727 30.3303 92.5486 30.2871 92.2245 30.2871C91.5762 30.2655 90.9495 30.3951 90.3445 30.5464C89.761 30.7193 89.1992 30.9354 88.7238 31.2163C87.7298 31.7781 86.9735 32.4912 86.4333 33.2259C85.893 33.9606 85.5689 34.6953 85.3744 35.322C85.3312 35.4732 85.288 35.6245 85.2448 35.7541C85.2016 35.8838 85.18 36.0351 85.1583 36.1431C85.1151 36.3808 85.0719 36.5969 85.0719 36.7698C85.0503 36.9426 85.0503 37.0723 85.0503 37.1587C84.9639 37.2884 84.9639 37.3316 84.9639 37.3316Z" fill="#1A2E35"/>
</svg>