<svg width="18" height="18" viewBox="0 0 18 18" fill="none" xmlns="http://www.w3.org/2000/svg">
<path d="M13.7894 12.4615V12.7722L14.0091 12.9919L15.1999 14.1826C15.234 14.2168 15.2452 14.2465 15.2494 14.2708C15.2543 14.2994 15.2513 14.3351 15.2361 14.3717C15.2209 14.4083 15.1975 14.436 15.1733 14.453C15.1525 14.4677 15.1231 14.4808 15.0748 14.4808H2.91787C2.86968 14.4808 2.84163 14.4678 2.82257 14.4543C2.80002 14.4383 2.77761 14.4119 2.76292 14.3759C2.74823 14.34 2.74522 14.304 2.75044 14.2744C2.75496 14.2487 2.76699 14.2177 2.80205 14.1826L2.27172 13.6523L2.80205 14.1826L3.99282 12.9919L4.21249 12.7722V12.4615V7.84615C4.21249 5.26463 5.55538 3.27138 7.78925 2.7421L8.36633 2.60537V2.01231V1.38462C8.36633 1.03268 8.64901 0.75 9.00095 0.75C9.35289 0.75 9.63556 1.03268 9.63556 1.38462V2.01231V2.60489L10.2121 2.74197C12.4377 3.27115 13.7894 5.27453 13.7894 7.84615V12.4615ZM9.7973 16.9038C9.59682 17.1165 9.31321 17.25 9.00095 17.25C8.68469 17.25 8.40084 17.1167 8.20126 16.9038H9.7973Z" stroke="#F48120" stroke-width="1.5"/>
</svg>
