<svg width="17" height="16" viewBox="0 0 17 16" fill="none" xmlns="http://www.w3.org/2000/svg">
<g id="Group 11">
<path id="Vector" d="M11.7681 10.0629H11.0454L10.7893 9.81589C11.6858 8.77301 12.2255 7.4191 12.2255 5.94625C12.2255 2.66209 9.56343 0 6.27926 0C2.9951 0 0.333008 2.66209 0.333008 5.94625C0.333008 9.23042 2.9951 11.8925 6.27926 11.8925C7.7521 11.8925 9.10602 11.3528 10.1489 10.4563L10.3959 10.7124V11.4351L14.9699 16L16.333 14.6369L11.7681 10.0629ZM6.27926 10.0629C4.00139 10.0629 2.16262 8.22413 2.16262 5.94625C2.16262 3.66838 4.00139 1.82962 6.27926 1.82962C8.55714 1.82962 10.3959 3.66838 10.3959 5.94625C10.3959 8.22413 8.55714 10.0629 6.27926 10.0629Z" fill="#828282"/>
</g>
</svg>
