<svg width="20" height="20" viewBox="0 0 20 20" fill="none" xmlns="http://www.w3.org/2000/svg">
<g id="Style/arrow">
<path id="Vector" d="M19.1477 7.15285L13.3546 6.22145C13.3546 6.22145 11.8692 2.84256 10.909 1.18252C9.9488 -0.476878 9.24959 1.18252 9.24959 1.18252L6.65627 6.22194L0.747431 7.09384C-0.765445 7.79366 0.486429 8.81268 0.486429 8.81268L4.53182 12.7423L3.54094 18.5078C3.33687 20.226 5.11395 19.294 5.11395 19.294L10.0345 16.7896L15.0439 19.3522C16.7621 20.1371 16.441 18.3907 16.441 18.3907L15.5659 12.7711L19.4968 8.78315C20.8057 7.5575 19.1476 7.15258 19.1476 7.15258L19.1477 7.15285ZM16.5429 9.16023L13.8351 11.9077L14.4389 15.7798C14.4389 15.7798 14.659 16.9837 13.4762 16.4419L10.0244 14.6764L6.6354 16.4022C6.6354 16.4022 5.41296 17.0432 5.55176 15.8598L6.23432 11.8873L3.44596 9.18193C3.44596 9.18193 2.58365 8.48018 3.62827 7.99722L7.69807 7.39717L9.48405 3.92626C9.48405 3.92626 9.96574 2.78248 10.6278 3.92626C11.2899 5.06875 12.3141 7.39717 12.3141 7.39717L16.3031 8.03816C16.3012 8.03816 17.445 8.31706 16.543 9.16018L16.5429 9.16023Z" fill="black"/>
</g>
</svg>
