<svg xmlns="http://www.w3.org/2000/svg" width="24" height="24" viewBox="0 0 24 24" fill="none">
  <g filter="url(#filter0_dd_1_1867)">
    <rect x="2" y="0.604004" width="24" height="24" rx="4" fill="white"/>
  </g>
  <path d="M14 9.104C14.9625 9.104 15.75 8.3165 15.75 7.354C15.75 6.3915 14.9625 5.604 14 5.604C13.0375 5.604 12.25 6.3915 12.25 7.354C12.25 8.3165 13.0375 9.104 14 9.104ZM14 10.854C13.0375 10.854 12.25 11.6415 12.25 12.604C12.25 13.5665 13.0375 14.354 14 14.354C14.9625 14.354 15.75 13.5665 15.75 12.604C15.75 11.6415 14.9625 10.854 14 10.854ZM14 16.104C13.0375 16.104 12.25 16.8915 12.25 17.854C12.25 18.8165 13.0375 19.604 14 19.604C14.9625 19.604 15.75 18.8165 15.75 17.854C15.75 16.8915 14.9625 16.104 14 16.104Z" fill="black"/>
  <defs>
    <filter id="filter0_dd_1_1867" x="0" y="0.604004" width="24" height="24" filterUnits="userSpaceOnUse" color-interpolation-filters="sRGB">
      <feFlood flood-opacity="0" result="BackgroundImageFix"/>
      <feColorMatrix in="SourceAlpha" type="matrix" values="0 0 0 0 0 0 0 0 0 0 0 0 0 0 0 0 0 0 127 0" result="hardAlpha"/>
      <feMorphology radius="2" operator="erode" in="SourceAlpha" result="effect1_dropShadow_1_1867"/>
      <feOffset dy="4"/>
      <feGaussianBlur stdDeviation="2"/>
      <feColorMatrix type="matrix" values="0 0 0 0 0.0941176 0 0 0 0 0.152941 0 0 0 0 0.294118 0 0 0 0.08 0"/>
      <feBlend mode="normal" in2="BackgroundImageFix" result="effect1_dropShadow_1_1867"/>
      <feColorMatrix in="SourceAlpha" type="matrix" values="0 0 0 0 0 0 0 0 0 0 0 0 0 0 0 0 0 0 127 0" result="hardAlpha"/>
      <feMorphology radius="2" operator="erode" in="SourceAlpha" result="effect2_dropShadow_1_1867"/>
      <feOffset dy="2"/>
      <feGaussianBlur stdDeviation="2"/>
      <feColorMatrix type="matrix" values="0 0 0 0 0.0941176 0 0 0 0 0.152941 0 0 0 0 0.294118 0 0 0 0.12 0"/>
      <feBlend mode="normal" in2="effect1_dropShadow_1_1867" result="effect2_dropShadow_1_1867"/>
      <feBlend mode="normal" in="SourceGraphic" in2="effect2_dropShadow_1_1867" result="shape"/>
    </filter>
  </defs>
</svg>